<?xml version="1.0" encoding="UTF-8"?>
<svg data-bbox="-0.002 -0.016 9743.006 959.529" viewBox="0 0 9743 959.53" xmlns="http://www.w3.org/2000/svg" data-type="color">
    <g>
        <path d="M5754.36 408.63c-1.15 10.48.12 6.34 5.87 8.04 46.11 13.67 34.32 14.2 63.46 42.59 5.88 5.73 15.83 8.2 22.64 15.37 22.8 23.97 26.68 112.75 28.2 147.79 2.65 61.12 6.26 244.13-19.34 292.99-18.28 34.88-74.88 39.19-110.65 41.35-56.01 3.38-105.1-13.05-152.15-12.49-57.21.68-111.64 16.84-176.18 12.49-234.35-15.78-460.91-231.16-445.79-474.12 17.83-286.63 239.62-489.16 529.44-465.53 122.93 10.02 267.53 85.89 307.65 208.35 22.49 68.65 38.28 163.8-53.14 183.18Zm-571.99 407.96c91.06 79.44 189.86 106.89 313.96 99.96 29.88-1.67 84.93-17.74 108.09-16.3 9.95.62 22.49 10.15 36.41 11.88 40.76 5.08 94.37 4.1 135.48.39 50.99-4.61 48.86-24.27 54.02-69.98 7.08-62.79 2.46-128.88 4.21-192.12-9.85-31.29 2.63-131.01-22.06-149.93-6.2-4.75-14.62-6.34-22.1-7.9-5.47-26.96-17.54-32.97-43.77-38.23-49.34-9.9-190.48-2.22-228.04 32.43-28.49 26.29 15.54 107.34-66.08 110.03-40.33 1.33-69.59-10.34-98.12-36.22-10.07-36.76-16.27-60.62-4.21-98.21 21.61-67.35 88.81-99.71 156.21-101.79 7.15-.22 16.92 4.48 28 4 4.3 25.37 1.85 32.05 30.34 35.67 42.8 5.45 144.61-12.21 184.43-30.9 36.21-17 35.58-27.84 33.38-66.93-3.35-59.5-22.41-92.03-60.15-133.84-139.83-154.89-393.25-138.46-549.89-15.89-146.5 114.63-210.61 367.22-115.79 531.57 34.47 59.75 75.89 88.88 125.68 132.32Zm347.99-380.05c-27.59-28.65-30.59-39.68-72.87-26.84-38.26 11.62-68.08 42.21-73.43 82.76-7.4 56.08 29.29 66.18 77.88 63.67 9.41-52.04 5.68-104.22 68.42-119.6Z" fill="#492351" data-color="1"/>
        <path d="M3350.41 772.59c-6.91 44.84-4.75 139.77-49.2 164.84-49.49 27.9-244.81 28.98-286.45-11.23-11.11-10.73-27.33-26.91-38.01-37.99-23.5-24.38-30.51-95.46-34.34-129.66-20.1-179.26-22.59-428.78-4.01-607.94 9.1-87.81 15.5-110.57 107.14-124.86 68.61-10.69 201.79-8.71 262.11 27.55 36.2 21.76 60.9 62.08 94.68 87.28-2.85-36.37 2.78-62.82 32.4-85.64 60.29-46.46 270.36-51.96 332.97-9.69 9.79 6.61 53.81 52.22 58.23 61.77 14.69 31.72 10.54 95.5 12.27 131.73 6.91 144.86 5.11 291.05.21 435.88-2.11 62.23 2.27 166.98-16.26 223.74-15.41 47.18-77.85 54.92-121.83 58.17-86.82 6.42-155.28 3.89-222.01-53.89-45.89-39.73-82.16-90.19-127.9-130.06m407.96-664c-1.03-7.48-1.54-17.7-6.21-23.8-13.45-17.56-88.91-26.94-111.83-28.16-38.75-2.07-162.49 7.47-187.65 36.28-27.15 31.08 4.06 137.76-8.29 179.67-38.88-47.36-72.87-104.56-115.97-148.03s-71.83-52.86-132.1-59.9c-65.5-7.66-144.84-8.46-204.78 21.08-17.16 66.84-14.66 136.39-17.21 204.83-5.53 148.81-7.18 307.54 8.06 456.02 2.46 23.99 9.73 99.65 25.83 114.16 5.21 4.7 19.09 9.98 26.15 11.86-.59 32.27 37.39 35.71 62.48 39.52 38.05 5.76 156.7 9.78 186.76-11.26 22.13-15.5 31.13-193.27 34.76-228.25 61.83 64.61 119.24 133.86 185.55 194.54 2.12 1.94 5.94 1 6.45 1.46.68.61 1.26 8.28 5.62 12.19 42.29 37.91 113.26 38.96 168.34 35.77 24.31-1.41 92.08-6.26 100.25-31.75 6.02-18.77 8.07-64.24 9.74-86.26 12.77-167.52 9.99-348.08 3.88-515.79-1.9-52.02.97-104.37-7.99-156.01-3.63-12.55-19.62-19.53-31.85-18.15Z" fill="#492351" data-color="1"/>
        <path d="M402.43 444.57c9.21-2.97 8.5-22.2 8.21-30.04-3.25-87.84-24.72-199.16-16.22-283.89C406.91 6.03 651.76.6 738.37 38.59c19.09 8.37 74.45 63.06 81.91 82.09 3.99 10.18 6.18 24.11 8.84 35.16 33.89 140.44 61.19 510.44-7.53 633.99-92.2 165.76-371.52 191.16-536.09 145.64C65.54 874.6-27.16 688.79 6.84 467.07 26.08 341.61 213.18 330.02 309.5 363.46c32.55 11.3 63.94 43.22 87.03 69 3 3.35 5.67 7.5 5.89 12.11Zm-32.06 152.02c-9.67-45.86 26.96-144.8-36-156-5.12-49.25-107.01-54.44-146.16-52.17-58.72 3.42-135.11 22.18-141.8 90.2C33 614.81 50.99 728.47 154.37 820.58c126.78 112.97 339.09 117.83 493.06 59.06 144.26-55.06 168.5-153.69 175.1-296.9 5.5-119.32-3.51-311.47-34.11-426.22-5.6-21-9.73-38.44-34.05-43.95-15.6-57.34-134.95-55.63-182.15-52.15-44.42 3.27-130.38 22.18-137.49 74.51-8.99 66.14 13.22 165.34 15.81 235.48 1.8 48.69 1.32 111.58-4.68 159.65-6.45 51.66-15.94 83.02-75.48 66.52Z" fill="#492351" data-color="1"/>
        <path d="M9668.99 81.98c38.53 38.39 35.29 216.24 13.63 264.86-14.6 32.77-62.88 41.01-94.76 45.23-9.02 1.19-30.76-3.98-29.42 6.38 2.47 19.22 15.36 46.99 18.92 69.15 4.27 26.59 5.67 54.06 4.99 81 29.12-.08 70.77 3.94 91.99 25.99 5.69 5.91 8.52 16.44 13.21 20.79 4.92 4.57 13.76 5.4 21.02 13.02 31.12 32.63 37.45 179.99 33.29 225.67-8.05 88.31-48.28 92.76-126.59 105.41-118.09 19.08-279.24 23.96-398.86 17.06-26.31-1.52-89.81-8.06-111.44-20.56-3.88-2.24-48.73-46.22-52.69-51.31-47.54-60.92-48.6-411.34-49.74-502.26-1.02-81.7-12.19-218.32 13.81-293.86 19.83-57.63 70.13-58.41 124.06-63.94 103.5-10.61 231.84-12.69 336.13-8.2 35.71 1.54 122.6 6.37 150 26 6.83 4.89 34.96 32.09 42.45 39.56Zm-50.62 22.61c-.25-1.42-10.71-24.99-11.77-26.24-16.06-19.13-115.53-16.32-142.4-17.59-101.29-4.8-206.27-5.33-307.8 3.87-62.95 5.71-97.24-3.26-108.94 67.06-17.39 104.55-4.68 262.28-.93 370.74 3.36 97.27 1.75 243.17 29.8 334.18 8.34 27.07 9.75 30.14 38.03 35.98-4.8 36.38 43.34 37.01 70.05 39.95 118.36 13.04 330.23 6.56 446.86-17.03 16.94-3.43 54.49-10.09 62.07-25.93 4.07-8.51 8.57-47.8 8.96-59.01.86-24.34-1.49-63.48-3.99-87.93-3.08-30.19-4.62-93.8-43.96-94.04-4.56-15.83-8.27-27.26-24.72-33.28-32.66-11.97-72.65-3.85-107.28-2.72 6.26-9.25 13.49-14.14 15.78-26.22 6.39-33.69-.76-131.21-20.24-159.3-5.7-8.22-14.11-10.53-23.54-10.47-5.87-19.33-17.17-37.54-40-36 31.1-.44 84.66-4.74 117.95-8.05 16.33-1.63 62.45-7.59 71.83-20.17 15.55-20.87 14.74-192.35.02-215.56-5.38-8.48-15.89-12.46-25.79-12.21Z" fill="#492351" data-color="1"/>
        <path d="m4441.92 793.07-83.58 1.48c-23.38 38.32-52.82 135.23-95.16 152.84-41.42 17.23-214.63 14.21-248.42-17.19-6.58-6.12-9.07-15.68-14.75-21.25-16.98-16.64-27.29-13.87-37.83-42.17-17.57-47.22 4.18-146.82 13.45-198.93 27.72-155.75 74.56-341.75 130.67-489.33 20.92-55.02 34-104.34 93.91-126.09 79.69-28.92 282.8-50.05 349.81 6.5 103.98 87.74 165.21 290.71 208.42 419.58 32.56 97.1 95.31 269 106.88 365.09 5.42 45.03-10.59 76.81-54.04 91.9-45.6 15.84-203.13 28.78-249.14 19.32-9.27-1.91-22.08-8.49-29.74-14.26-8.78-6.61-39.67-38.8-47.68-48.32-22.72-27-31.45-66.35-42.8-99.18Zm-407.55 83.52c-.25 9.91 3.74 20.42 12.21 25.79 19.2 12.18 126.93 16 153.98 14.4 10.14-.6 34.67-2.5 42.94-5.06 26.31-8.13 60.48-111.93 78.06-137.94 8.63-12.76 18.89-19.39 34.71-21.29 24.22-2.91 81.39-2.4 106.09.09 5.44.55 6.07-.42 9.2 4.92 18.48 31.56 25.43 116.86 70.8 123.08 8.62 44.95 58.59 37.11 93.96 35.96 30.46-.99 69.44-4.43 99.99-8.01 106.7-12.51 96.48-28.45 72.91-120.81-43.52-170.55-129.8-467.41-216.79-615.21-8.9-15.13-20.48-39.15-38.08-43.92-45.21-71.27-124.32-68.86-201.96-63.96-37.94 2.39-149.28 18.74-171.81 48.19-29.51 38.58-64.92 164.7-80.22 215.78-39.35 131.39-93.39 323.28-101.97 458.03-2.37 37.19-9.61 81.82 35.96 89.96Z" fill="#492351" data-color="1"/>
        <path d="m1461.92 793.07-83.6 1.47c-24.17 38.37-52.11 134.96-95.14 152.86-42.1 17.51-213.37 14.07-248.4-17.21-7.22-6.44-11.41-17.74-17.78-24.22-5.14-5.24-14.1-7.29-20.26-13.77-36.96-38.85-16.85-130.8-9.21-180.45 25.59-166.25 79.12-376.15 138.77-533.23 21.15-55.7 33.34-104.07 93.91-126.09 82.09-29.84 285.88-50.82 354.24 10.07 112.18 99.92 191.3 372.62 236.98 519.02 17.97 57.59 80.02 243.63 73.89 292.03-8.88 70.06-101.21 73.9-156.97 79.02-44.65 4.1-141.06 14.29-175.95-12.01-9-6.78-39.38-38.55-47.68-48.32-23.58-27.74-31.16-65.44-42.8-99.18Zm-407.55 83.52c-.25 9.91 3.74 20.42 12.21 25.79 19.24 12.2 130.94 16.33 157.95 14.36 9.33-.68 30.06-3.17 38.01-5.99 29.25-10.41 59.59-108.2 79.03-136.97 8.63-12.76 18.89-19.39 34.71-21.29 23.85-2.87 81.87-2.48 106.09.09 3.03.32 6.07-.47 8.14 2.64 10.64 23.51 15.88 49.67 25.92 73.3 9.47 22.27 19.31 48.73 45.93 52.07.43 18.18 14.7 30.42 30.92 35.08 63.19-1.28 136.24.05 197.98-12.17 26.98-5.34 53.65-12.43 55.12-44.88-58.88-209.88-116.1-437.86-208.59-635.46-14.56-31.11-33.23-77.44-63.44-94.56-30.71-49.18-65.34-60.29-121.84-64.16-53.01-3.64-199.87 6.82-241.93 38.4-19.59 14.71-42.89 82.07-52.31 107.69-55.85 151.84-129.75 417.02-139.88 576.12-2.36 36.99-9.85 81.93 35.96 89.96Z" fill="#492351" data-color="1"/>
        <path d="M2434.39 860.57c.35 44.89-18.47 71.71-61.43 84.6-44.2 13.27-217.03 19.17-257.88 4.73-23.62-8.35-24.39-22.13-38.13-35.88-5.66-5.66-15.65-9.21-21.13-14.88-27.54-28.52-36.8-138.29-41.42-180.57-13.33-122.17-16.63-245.32-19.85-368.15-1.85-70.44-15.04-200.42 11-264.67 14.62-36.05 84.46-54.82 119.99-64.01 200.69-51.87 412.22-14.35 548.72 148.95 71.97 86.1 95.38 230.99 61.25 337.02-7.43 23.1-19.99 40.31-28.71 62.04 50.33 62.08 141.89 104.97 105.52 198.77-15.31 39.48-98.66 154.4-135.21 172.79-82.12 41.32-168.01-62.19-242.72-80.75Zm-324.02 20.02c2.23 29.28 24.7 33.66 50.07 35.93 43.36 3.88 153.94 1.56 194.82-9.04 51.79-13.44 35.26-48.71 44.84-91.16 32.57-13.24 69.86 11.09 98.35 26.18 40.81 21.62 108.55 79.13 156.14 64.29 8.71-2.71 24.76-20.66 31.88-28.1 23.05-24.08 96.31-122.06 96.05-152.18-.18-21.09-26.99-46.79-40.15-61.93-27.35-31.46-62.91-68.87-92-96 72.71-73.78 71.15-196.45 39.04-289.04-9.31-26.84-28.98-70.41-55.04-82.96-94.51-164.33-387.29-184.66-546.09-120.09-45.15 18.36-50.41 23.17-54.06 73.94-10.1 140.43 1.22 318.53 12.19 460.12 5.2 67.09 10.07 166.42 26.56 229.44 6.04 23.1 11.33 37.15 37.41 40.59Z" fill="#492351" data-color="1"/>
        <path d="M8226.35 544.57c5.14-4.76-40.24-45.44-45.65-52.31-68.3-86.88-66.09-233.85-12.02-327.35 87.55-151.38 296.26-201.11 453.61-138.25 83.54 33.37 210.73 150.85 204.23 248.09-3.81 56.99-61.74 76.28-104.08 99.84 138.81 94.67 218.89 264.59 120.03 420.11-114.46 180.06-394.31 212.37-561.43 89.22-105.41-77.68-267.7-283.73-54.7-339.34Zm36.02-31.98c.49.45.28 7.1 5.84 12.02 14.08 12.46 49.36 36.17 66.16 43.98-47.62 1.08-165.86 12.34-171.82 74.49-2.97 31 26.1 85.59 44.5 110.84 18.29 25.1 58.43 64.45 83.32 78.68.21 8.55 4.9 10.83 10.61 15.37 141.98 112.79 399.47 85.2 502.32-68.44 52.73-78.76 55.06-188.08.73-266.59-6.67-9.64-12.15-22.71-25.65-24.34-33.99-59.09-116.8-107.17-180-128 45.75-12.17 159.75-28.56 183.48-74.5 19.59-37.93-27.55-98.55-51.48-125.5-25.43-28.63-52.08-56.95-85.32-76.68-177.14-105.11-458.3-12-474.83 210.52-8.01 107.83 16.98 149.93 92.15 218.15Z" fill="#492351" data-color="1"/>
        <path d="M7457.57 13.79c392.84-30.46 694.9 403.03 458.35 746.35-204.52 296.83-609.61 241.56-798.46-40.64-190.13-284.12 1.58-679.47 340.11-705.71m-199.2 794.8c170.1 149.19 430.13 149.53 590.06-27.94 112.03-124.32 142.9-330.56 62.63-478.74-10.83-19.99-28.11-51.5-48.69-61.31-175.79-275.37-628.27-239.24-749.94 76.06-78.21 202.68-6.49 358.25 145.94 491.94Z" fill="#492351" data-color="1"/>
        <path d="M6389.57 13.79c373.5-28.96 670.3 360.02 482.89 706.89-188.37 348.64-659.23 291.49-842.77-33.4-159.39-282.14 39.13-648.62 359.88-673.49m-199.2 794.8c179.07 156.22 453.92 147.85 607.83-50.17 99.69-128.26 122.62-321.88 40.85-464.52-9.84-17.17-26.5-45.48-44.69-53.31-180.61-276.11-629.51-239.25-751.06 78.94-76.46 200.16-3.75 357.49 147.06 489.06Z" fill="#492351" data-color="1"/>
        <path d="M5722.37 168.59c12.06 39.79 27.04 79.89 28.16 122.2 1.11 41.74-71.42 57.26-104.02 63.94-39.02 8-73.05 8.18-112.14 9.86-11.08.48-20.85-4.22-28-4-2.91-39.49-28.28-34.98-61.51-31.51-119.76 12.52-185.94 144.91-90.49 231.51 28.53 25.88 57.78 37.55 98.12 36.22 81.62-2.69 37.58-83.74 66.08-110.03 37.56-34.65 178.7-42.33 228.04-32.43 26.22 5.26 38.3 11.27 43.77 38.23 14.02 69.16 12.24 209.27 8.17 282.17-1.07 19.14-6.08 74.32-16.07 87.93-10.05 13.69-52.39 16.71-70.14 17.86-35.37 2.3-83.8 1.59-118.27-5.65-9.21-1.94-14.8-10.15-25.1-10.13-23.39.04-64.84 13.91-92.63 15.78-81.35 5.46-161.65-3.17-236.65-35.26-19.73-8.44-37.04-21.73-57.3-28.7-49.79-43.44-91.21-72.57-125.68-132.32-94.82-164.35-30.71-416.94 115.79-531.57 156.64-122.57 410.06-139 549.89 15.89Z" fill="#ac4dbf" data-color="2"/>
        <path d="M5182.37 816.59c20.27 6.97 37.58 20.25 57.3 28.7 75.01 32.09 155.31 40.72 236.65 35.26 27.8-1.86 69.24-15.74 92.63-15.78 10.3-.02 15.89 8.19 25.1 10.13 34.47 7.24 82.9 7.95 118.27 5.65 17.74-1.15 60.09-4.17 70.14-17.86 9.99-13.62 15-68.79 16.07-87.93 4.07-72.9 5.86-213.01-8.17-282.17 7.49 1.56 15.9 3.15 22.1 7.9 24.69 18.92 12.22 118.64 22.06 149.93-1.76 63.23 2.87 129.33-4.21 192.12-5.15 45.71-3.03 65.37-54.02 69.98-41.11 3.72-94.72 4.7-135.48-.39-13.92-1.74-26.46-11.26-36.41-11.88-23.15-1.44-78.21 14.63-108.09 16.3-124.11 6.93-222.9-20.52-313.96-99.96Z" fill="#733380" data-color="3"/>
        <path d="M5722.37 168.59c37.74 41.81 56.8 74.34 60.15 133.84 2.2 39.09 2.83 49.93-33.38 66.93-39.82 18.69-141.63 36.35-184.43 30.9-28.49-3.63-26.04-10.3-30.34-35.67 39.09-1.68 73.12-1.86 112.14-9.86 32.6-6.68 105.13-22.2 104.02-63.94-1.13-42.32-16.1-82.41-28.16-122.2" fill="#733380" data-color="3"/>
        <path d="M5506.37 360.59c-67.4 2.09-134.6 34.44-156.21 101.79-12.06 37.58-5.86 61.45 4.21 98.21-95.45-86.6-29.27-218.99 90.49-231.51 33.23-3.47 58.6-7.98 61.51 31.51" fill="#733380" data-color="3"/>
        <path d="M3758.37 108.59c21.74 158.35 9.38 372.01 3.84 533.84-1.57 45.93.23 94.27-3.88 140.12-1.54 17.22-5.29 70.2-16.08 79.92-29.98 27-189.84 21.06-231.88 6.12-.51-.46-4.33.48-6.45-1.46-66.31-60.68-123.71-129.93-185.55-194.54l-31.95-39.99c-9.07 51.84-8.71 105.5-16.56 157.48-2.89 19.15-8.13 65.24-23.55 76.45-30.19 21.94-173.98 16.17-211.94 6.06-7.06-1.88-20.94-7.16-26.15-11.86-16.1-14.51-23.36-90.17-25.83-114.16-15.24-148.48-13.59-307.21-8.06-456.02 2.54-68.44.05-138 17.21-204.83 59.94-29.54 139.28-28.74 204.78-21.08 60.27 7.05 89.28 16.72 132.1 59.9s77.09 100.67 115.97 148.03c12.35-41.91-18.85-148.58 8.29-179.67 25.16-28.81 148.9-38.35 187.65-36.28 22.92 1.23 98.38 10.6 111.83 28.16 4.67 6.1 5.18 16.32 6.21 23.8Z" fill="#ac4dbf" data-color="2"/>
        <path d="M3510.37 868.59c42.04 14.94 201.91 20.88 231.88-6.12 10.79-9.72 14.54-62.7 16.08-79.92 4.11-45.85 2.3-94.19 3.88-140.12 5.54-161.82 17.91-375.48-3.84-533.84 12.23-1.38 28.21 5.6 31.85 18.15 8.95 51.64 6.09 104 7.99 156.01 6.11 167.72 8.89 348.27-3.88 515.79-1.68 22.01-3.73 67.49-9.74 86.26-8.17 25.49-75.95 30.34-100.25 31.75-55.08 3.19-126.04 2.14-168.34-35.77-4.36-3.91-4.95-11.58-5.62-12.19Z" fill="#733380" data-color="3"/>
        <path d="M3318.37 672.59c-3.63 34.98-12.63 212.76-34.76 228.25-30.06 21.05-148.71 17.03-186.76 11.26-25.09-3.8-63.08-7.25-62.48-39.52 37.96 10.11 181.75 15.88 211.94-6.06 15.42-11.21 20.66-57.3 23.55-76.45 7.85-51.98 7.49-105.64 16.56-157.48l31.95 39.99Z" fill="#733380" data-color="3"/>
        <path d="M754.37 112.59c8.89 32.69 15.14 94.72 19.49 130.51 14.46 118.95 30.47 368.22-15.36 475.62-71.66 167.95-364.12 185.24-514.21 137.95-30.95-9.75-59.52-25.21-89.92-36.08C50.99 728.47 33 614.82 46.41 478.63c6.7-68.02 83.08-86.79 141.8-90.2 39.15-2.28 141.05 2.91 146.16 52.17 5.11 49.14-21.98 139.93 36 156 59.54 16.5 69.03-14.86 75.48-66.52 6.01-48.07 6.48-110.96 4.68-159.65-2.59-70.14-24.8-169.34-15.81-235.48 7.11-52.32 93.08-71.24 137.49-74.51 47.2-3.48 166.56-5.19 182.15 52.15Z" fill="#ac4dbf" data-color="2"/>
        <path d="M154.37 820.59c30.4 10.87 58.97 26.33 89.92 36.08 150.09 47.29 442.55 30 514.21-137.95 45.83-107.4 29.82-356.67 15.36-475.62-4.35-35.79-10.6-97.82-19.49-130.51 24.33 5.51 28.45 22.94 34.05 43.95 30.6 114.74 39.61 306.9 34.11 426.22-6.6 143.21-30.84 241.84-175.1 296.9-153.98 58.77-366.28 53.9-493.06-59.06Z" fill="#733380" data-color="3"/>
        <path d="M370.37 596.59c-57.98-16.07-30.89-106.86-36-156 62.96 11.2 26.33 110.14 36 156" fill="#733380" data-color="3"/>
        <path d="M9618.37 104.59c5.15 29.64 6.03 87.56 4.17 118.17-1.55 25.49-3.21 76.52-31 85-70.82 15.43-144.92 11.94-217.18 16.82l3.76 30.27c24.1-.93 53.64 6.07 76.25 5.75 22.83-1.54 34.13 16.67 40 36 9.05 29.79 19.67 124.36 3.61 149.61-11.6 18.23-92.49 16.32-115.63 18.37v32.04c46.79 1.74 93.37-2.5 140.02-4.02 34.63-1.13 74.62-9.25 107.28 2.72 16.44 6.03 20.16 17.45 24.72 33.28 11.94 41.45 18.81 164.04 5.38 203.38-6.04 17.7-36.06 22.9-53.24 26.76-108.53 24.42-385.69 35.86-492.14 13.86-28.28-5.84-29.69-8.91-38.03-35.98-28.05-91.02-26.44-236.92-29.8-334.18-3.75-108.45-16.46-266.18.93-370.74 11.7-70.32 45.99-61.35 108.94-67.06 101.53-9.21 206.51-8.67 307.8-3.87 26.87 1.27 126.34-1.54 142.4 17.59 1.06 1.26 11.52 24.83 11.77 26.24Z" fill="#ac4dbf" data-color="2"/>
        <path d="M9114.37 872.59c106.45 22 383.61 10.57 492.14-13.86 17.18-3.87 47.2-9.06 53.24-26.76 13.43-39.33 6.56-161.92-5.38-203.38 39.34.24 40.88 63.86 43.96 94.04 2.49 24.45 4.84 63.59 3.99 87.93-.39 11.21-4.89 50.5-8.96 59.01-7.58 15.84-45.13 22.51-62.07 25.93-116.63 23.59-328.5 30.07-446.86 17.03-26.71-2.94-74.85-3.57-70.05-39.95Z" fill="#733380" data-color="3"/>
        <path d="M9454.37 360.59c-22.61.32-52.15-6.68-76.25-5.75l-3.76-30.27c72.26-4.87 146.36-1.39 217.18-16.82 27.8-8.48 29.45-59.51 31-85 1.86-30.61.98-88.53-4.17-118.17 9.91-.25 20.42 3.74 25.79 12.21 14.72 23.21 15.54 194.7-.02 215.56-9.38 12.59-55.5 18.55-71.83 20.17-33.28 3.31-86.84 7.61-117.95 8.05Z" fill="#733380" data-color="3"/>
        <path d="M9522.37 592.59c-46.65 1.52-93.23 5.76-140.02 4.02v-32.04c23.13-2.05 104.03-.14 115.63-18.37 16.06-25.25 5.44-119.82-3.61-149.61 9.43-.06 17.84 2.25 23.54 10.47 19.48 28.09 26.63 125.61 20.24 159.3-2.29 12.08-9.52 16.97-15.78 26.22Z" fill="#733380" data-color="3"/>
        <path d="M4554.37 128.59c42.42 66.87 84.77 196.26 112.08 273.92 39.3 111.78 78.6 233.62 107.61 348.39 12.98 51.34 41.07 100.04-27.47 115.9-43.21 10-161.77 19.6-204.22 13.78-45.37-6.21-52.32-91.52-70.8-123.08-3.13-5.34-3.76-4.38-9.2-4.92 1.16-17.58-15.01-31.86-30.92-35.08-18.72-3.79-94.3-3.13-113.31.86-39.32 8.26-56.76 79.29-75.09 112.91-16.72 30.67-21.08 46.3-58.54 49.46-37.35 3.15-113.78 2.36-150.14-4.14-45.56-8.14-38.33-52.77-35.96-89.96 8.58-134.75 62.62-326.64 101.97-458.03 15.3-51.08 50.71-177.2 80.22-215.78 22.53-29.45 133.87-45.8 171.81-48.19 77.65-4.9 156.75-7.31 201.96 63.96m-212 404c20.35 2.49 87.83.91 98.01-19.97 11.76-24.1-19.97-71.94-34.01-92.03-26.09-37.35-39.19-56.5-68.68-6.68-20.72 35.01-58.88 110.9 4.68 118.68" fill="#ac4dbf" data-color="2"/>
        <path d="M4542.37 880.59c42.45 5.81 161.01-3.79 204.22-13.78 68.54-15.86 40.45-64.56 27.47-115.9-29.01-114.77-68.31-236.6-107.61-348.39-27.31-77.67-69.66-207.05-112.08-273.92 17.59 4.78 29.17 28.8 38.08 43.92 86.98 147.81 173.27 444.66 216.79 615.21 23.57 92.36 33.79 108.3-72.91 120.81-30.55 3.58-69.53 7.02-99.99 8.01-35.37 1.15-85.34 8.99-93.96-35.96Z" fill="#733380" data-color="3"/>
        <path d="M4462.37 752.59c-24.7-2.49-81.88-3-106.09-.09-15.82 1.9-26.08 8.53-34.71 21.29-17.58 26.01-51.75 129.81-78.06 137.94-8.27 2.56-32.81 4.46-42.94 5.06-27.05 1.6-134.78-2.22-153.98-14.4-8.48-5.38-12.46-15.89-12.21-25.79 36.36 6.5 112.79 7.29 150.14 4.14 37.46-3.16 41.82-18.79 58.54-49.46 18.33-33.62 35.77-104.64 75.09-112.91 19-3.99 94.58-4.65 113.31-.86 15.91 3.22 32.08 17.51 30.92 35.08Z" fill="#733380" data-color="3"/>
        <path d="M1574.37 128.59c44.1 70.63 87.69 204.41 116.08 285.92 37.59 107.95 75.64 225.7 103.61 336.39 12.97 51.3 41.07 100.09-27.47 115.9-45.26 10.44-159.31 19.41-204.22 13.78-26.63-3.34-36.47-29.8-45.93-52.07-10.04-23.63-15.29-49.79-25.92-73.3-2.07-3.1-5.12-2.31-8.14-2.64 1.16-17.58-15.01-31.86-30.92-35.08-18.72-3.79-94.3-3.13-113.31.86-39.02 8.2-52.64 70.35-69.6 102.4s-24.6 56.54-64.02 59.98c-37.26 3.26-113.74 2.22-150.16-4.16-45.81-8.03-38.31-52.97-35.96-89.96 10.14-159.1 84.03-424.27 139.88-576.12 9.42-25.61 32.72-92.98 52.31-107.69 42.06-31.58 188.92-42.04 241.93-38.4 56.49 3.87 91.13 14.98 121.84 64.16Zm-212 404c20.35 2.49 87.83.91 98.01-19.97 11.76-24.1-19.97-71.94-34.01-92.03-26.09-37.35-39.19-56.5-68.68-6.68-20.72 35.01-58.88 110.9 4.68 118.68" fill="#ac4dbf" data-color="2"/>
        <path d="M1562.37 880.59c44.9 5.63 158.96-3.34 204.22-13.78 68.54-15.81 40.44-64.61 27.47-115.9-27.98-110.69-66.02-228.43-103.61-336.39-28.38-81.52-71.98-215.3-116.08-285.92 30.21 17.12 48.87 63.45 63.44 94.56 92.49 197.61 149.71 425.58 208.59 635.46-1.46 32.45-28.13 39.54-55.12 44.88-61.75 12.21-134.8 10.89-197.98 12.17-16.23-4.66-30.49-16.89-30.92-35.08Z" fill="#733380" data-color="3"/>
        <path d="M1482.37 752.59c-24.22-2.57-82.24-2.96-106.09-.09-15.82 1.9-26.08 8.53-34.71 21.29-19.45 28.77-49.78 126.56-79.03 136.97-7.95 2.83-28.67 5.31-38.01 5.99-27.01 1.97-138.71-2.16-157.95-14.36-8.48-5.38-12.46-15.89-12.21-25.79 36.43 6.38 112.91 7.42 150.16 4.16 39.41-3.45 47.17-28.14 64.02-59.98s30.58-94.2 69.6-102.4c19-3.99 94.58-4.65 113.31-.86 15.91 3.22 32.08 17.51 30.92 35.08Z" fill="#733380" data-color="3"/>
        <path d="M2634.37 196.59c39.63 68.92 53.1 193.38 25.95 267.95-10.49 28.83-29.74 49.14-46.2 74.1 0 4.94 20.27 20.56 26.28 26.08 3.28 3.01 9.1 3.06 9.97 3.87 29.09 27.13 64.65 64.54 92 96 2.28 13.24 5.26 23.02 3.08 37.02-4.75 30.46-77.19 126.91-101.03 151.02-33.49 33.88-51.46 25.77-92.1 8.01-44.75-19.56-124.94-86.94-171.99-84.38-35.59 1.93-1.3 70.92-41.92 90.37-33.04 15.82-188.55 19.18-228.04 13.96-26.08-3.45-31.36-17.5-37.41-40.59-16.49-63.02-21.36-162.35-26.56-229.44-10.97-141.59-22.29-319.69-12.19-460.12 3.65-50.77 8.92-55.58 54.06-73.94 158.81-64.57 451.58-44.24 546.09 120.09Zm-308 236c3.68.98 4.21 4.41 13.2 3.9 51.38-2.92 106.09-62.26 78.8-111.9-19.62-35.68-68.23-43.44-105.16-35.16-47.49 10.65-32.95 120.74 1.45 141.02 4.29 2.53 8.29 1.24 11.7 2.14Z" fill="#ac4dbf" data-color="2"/>
        <path d="M2110.37 880.59c39.49 5.22 195 1.86 228.04-13.96 40.61-19.45 6.32-88.43 41.92-90.37 47.05-2.56 127.25 64.82 171.99 84.38 40.64 17.77 58.61 25.87 92.1-8.01 23.84-24.12 96.29-120.56 101.03-151.02 2.18-14-.81-23.78-3.08-37.02 13.16 15.14 39.97 40.84 40.15 61.93.26 30.12-73 128.09-96.05 152.18-7.12 7.44-23.18 25.39-31.88 28.1-47.59 14.83-115.33-42.68-156.14-64.29-28.5-15.09-65.79-39.43-98.35-26.18-9.58 42.45 6.95 77.72-44.84 91.16-40.88 10.61-151.47 12.92-194.82 9.04-25.36-2.27-47.83-6.65-50.07-35.93Z" fill="#733380" data-color="3"/>
        <path d="M2650.37 568.59c-.87-.81-6.69-.85-9.97-3.87-6-5.52-26.27-21.13-26.28-26.08 16.46-24.96 35.7-45.27 46.2-74.1 27.15-74.57 13.68-199.03-25.95-267.95 26.06 12.56 45.73 56.13 55.04 82.96 32.11 92.58 33.68 215.26-39.04 289.04" fill="#733380" data-color="3"/>
        <path d="M8730.37 160.59c6 29.41 26.49 53.01 19.14 85.17-8.91 38.98-122.58 69.13-158.24 73.73-13.66 1.76-29.75-2.29-40.9 5.1-1.37-1.15-30.25-15.62-32-16 6.18-62.34-102.44-28.34-91.6 5.36 2.84 8.84 33.8 16.04 43.6 18.64 28.81 7.64 59.34 8.96 88 16 11.39 2.8 28.47 8.2 40 12 63.2 20.83 146.01 68.91 180 128 49.32 85.75 39.67 189.42-18.32 267.68-103.32 139.42-325.18 158.91-469.68 76.32-24.9-14.23-65.03-53.57-83.32-78.68-18.4-25.25-47.47-79.84-44.5-110.84 5.96-62.14 124.2-73.4 171.82-74.49 22.2 10.32 75.32 4.51 96 28 6.02 6.84 8.58 22.16 15.9 30.1 20.1 21.8 78.27 20.87 80.1-14.1 1.04-19.92-7.56-23.05-24.09-29.91-74.88-31.09-169.7-21.1-239.91-70.09-75.18-68.23-100.16-110.33-92.15-218.15 16.53-222.52 297.69-315.63 474.83-210.52 33.25 19.73 59.9 48.04 85.32 76.68" fill="#ac4dbf" data-color="2"/>
        <path d="M8290.37 832.59c144.49 82.59 366.35 63.1 469.68-76.32 57.99-78.26 67.65-181.92 18.32-267.68 13.5 1.64 18.99 14.71 25.65 24.34 54.34 78.51 52 187.82-.73 266.59-102.84 153.64-360.33 181.23-502.32 68.44-5.71-4.54-10.4-6.82-10.61-15.37Z" fill="#733380" data-color="3"/>
        <path d="M8598.37 360.59c-11.53-3.8-28.61-9.2-40-12-1.61-5.53-4.47-21.05-8-24 11.15-7.4 27.24-3.34 40.9-5.1 35.66-4.61 149.33-34.75 158.24-73.73 7.35-32.16-13.13-55.75-19.14-85.17 23.93 26.95 71.08 87.57 51.48 125.5-23.73 45.94-137.74 62.34-183.48 74.5" fill="#733380" data-color="3"/>
        <path d="M8526.37 612.59c-25.8-4.44-51.05-12.01-76.68-17.38-5.84-1.22-15.45-6.24-19.32 1.38-20.68-23.49-73.8-17.68-96-28-16.8-7.81-52.07-31.52-66.16-43.98-5.56-4.92-5.35-11.57-5.84-12.02 70.21 48.99 165.03 39 239.91 70.09 16.53 6.86 25.13 9.99 24.09 29.91" fill="#733380" data-color="3"/>
        <path d="M7862.37 240.59c89.02 139.45 75.22 336.78-20.74 469.26-140.38 193.8-384.38 220.29-583.26 98.74-152.42-133.69-224.14-289.26-145.94-491.94 121.67-315.3 574.15-351.43 749.94-76.06m-424 312c97.21 75.02 225.17-53.88 148-148-7.42-9.05-11.75-17.16-25.22-24.79-121.96-69.14-230.73 89.48-122.78 172.79" fill="#ac4dbf" data-color="2"/>
        <path d="M7862.37 240.59c20.58 9.82 37.86 41.33 48.69 61.31 80.28 148.18 49.4 354.42-62.63 478.74-159.93 177.47-419.96 177.13-590.06 27.94 198.88 121.55 442.88 95.06 583.26-98.74 95.96-132.48 109.76-329.81 20.74-469.26Z" fill="#733380" data-color="3"/>
        <path d="M6794.37 240.59c135.27 206.79 34.2 507.6-186.57 607.43-133.81 60.51-294.92 35.97-417.43-39.43-150.82-131.57-223.53-288.9-147.06-489.06 121.55-318.19 570.45-355.05 751.06-78.94m-424 312c89.19 68.83 208.05-34.27 162.06-132.05-5.05-10.74-9.73-10.57-14.06-15.95-10.2-12.7-7.26-14.22-25.33-24.67-120.69-69.79-231.05 89.03-122.67 172.67" fill="#ac4dbf" data-color="2"/>
        <path d="M6794.37 240.59c18.19 7.83 34.85 36.15 44.69 53.31 81.76 142.64 58.84 336.26-40.85 464.52-153.91 198.01-428.77 206.38-607.83 50.17 122.51 75.41 283.62 99.94 417.43 39.43 220.77-99.84 321.84-400.64 186.57-607.43Z" fill="#733380" data-color="3"/>
        <path d="M4406.37 420.59c14.04 20.1 45.76 67.93 34.01 92.03-10.18 20.88-77.65 22.46-98.01 19.97 2.96-25.64 14.53-56.35 27.34-78.66 7.55-13.14 19.13-34.08 36.66-33.34" fill="#492351" data-color="1"/>
        <path d="M4406.37 420.59c-17.53-.75-29.12 20.19-36.66 33.34-12.81 22.32-24.38 53.02-27.34 78.66-63.56-7.78-25.4-83.67-4.68-118.68 29.49-49.82 42.59-30.68 68.68 6.68" fill="#733380" data-color="3"/>
        <path d="M1426.37 420.59c14.04 20.1 45.76 67.93 34.01 92.03-10.18 20.88-77.65 22.46-98.01 19.97 2.87-25.94 14.64-55.98 27.33-78.67 7.4-13.23 18.64-37.73 36.67-33.33" fill="#492351" data-color="1"/>
        <path d="M1426.37 420.59c-18.03-4.4-29.28 20.1-36.67 33.33-12.69 22.69-24.45 52.74-27.33 78.67-63.56-7.78-25.4-83.67-4.68-118.68 29.49-49.82 42.59-30.68 68.68 6.68" fill="#733380" data-color="3"/>
        <path d="M2418.37 324.59c27.3 49.64-27.42 108.98-78.8 111.9-8.99.51-9.52-2.93-13.2-3.9-8.45-28.77-19.02-92.21 15.94-106.06 26.03-10.32 49.65-1.97 76.06-1.94m-36.02 36.02-24-.04.04 28c4.01 4.7 29.48-19.01 23.96-27.96" fill="#492351" data-color="1"/>
        <path d="M2418.37 324.59c-26.41-.03-50.03-8.38-76.06 1.94-34.96 13.86-24.39 77.3-15.94 106.06-3.41-.9-7.41.39-11.7-2.14-34.41-20.28-48.94-130.36-1.45-141.02 36.92-8.28 85.53-.53 105.16 35.16Z" fill="#733380" data-color="3"/>
        <path d="M8518.37 308.59c-13.29-2.86-46.57 8.84-48 24-9.8-2.6-40.76-9.8-43.6-18.64-10.84-33.7 97.78-67.7 91.6-5.36" fill="#733380" data-color="3"/>
        <path d="M8526.37 612.59c-1.83 34.97-60 35.9-80.1 14.1-7.32-7.94-9.89-23.26-15.9-30.1 3.88-7.62 13.48-2.6 19.32-1.38 25.63 5.37 50.87 12.94 76.68 17.38" fill="#492351" data-color="1"/>
        <path d="M8518.37 308.59c1.75.38 30.63 14.85 32 16 3.53 2.95 6.39 18.47 8 24-28.66-7.04-59.19-8.36-88-16 1.43-15.16 34.71-26.86 48-24" fill="#492351" data-color="1"/>
        <path d="M7586.37 404.59c77.17 94.12-50.79 223.02-148 148-13.98-45.18-12.59-88.79 21.88-124.12 37.87-38.83 76.97-34.5 126.12-23.88m-65.1 32.91c-34.78 7.05-57.31 46.87-50.77 80.99 3.84 20.03 40.39 16.27 55.99 12.22 28.79-7.48 53.47-56.29 39.55-83.81-7.68-11.16-32.63-11.86-44.77-9.39Z" fill="#492351" data-color="1"/>
        <path d="M7438.37 552.59c-107.95-83.31.83-241.93 122.78-172.79 13.46 7.63 17.8 15.74 25.22 24.79-49.15-10.62-88.25-14.95-126.12 23.88-34.46 35.33-35.86 78.95-21.88 124.12" fill="#733380" data-color="3"/>
        <path d="M6518.37 404.59c4.32 5.38 9.01 5.21 14.06 15.95 45.99 97.78-72.87 200.88-162.06 132.05-35.22-101.53 46.48-181.97 148-148m-65.1 32.91c-34.78 7.06-57.31 46.86-50.77 80.99 3.84 20.03 40.39 16.27 55.99 12.22 42.2-10.97 75.51-109.61-5.22-93.21" fill="#492351" data-color="1"/>
        <path d="M6518.37 404.59c-101.52-33.97-183.22 46.47-148 148-108.38-83.64 1.97-242.46 122.67-172.67 18.07 10.45 15.13 11.97 25.33 24.67" fill="#733380" data-color="3"/>
    </g>
</svg>
