<?xml version="1.0" encoding="UTF-8"?>
<svg data-bbox="22.549 15.81 11345.401 6144.19" viewBox="0 0 11380 6160" xmlns="http://www.w3.org/2000/svg" data-type="ugc">
    <g>
        <path d="M6952 6152v8h-48v-8c14.49-2.12 35 3.05 48 0" fill="#e5e4da"/>
        <path d="M5016 456c230.37 118.35 463.97 305.48 600 536 82.77 140.26 176.94 419.83 198.92 581.08 49 359.45-107.59 738.03-230.92 1066.92-12.24 32.63-35.21 70.01-48.15 107.85-28.15 82.29-95.46 295.21-47.9 368.2 39.68 60.89 205.84 159.85 272.05 211.95 310.02 243.94 614.98 560.66 856 872 108.14 139.69 334.32 536.95 480.06 595.94 123.78 50.1 288.32 24.52 419.22 44.78 43.8 6.78 61.82 19.92 24.58 55.15-34.91 33.02-114.76 80.36-158.48 105.51-69.64 40.06-142.13 76.76-221.38 94.62-37.63-26.01-126.37-50.85-172.44-56.3-18.39-2.18-34.93 8.19-51.75 4.74-28.47-5.85-110.89-52.41-149.83-66.41-181.72-65.35-369.6-111.77-558.28-153.05-52.82 9.31-78.78 90.53-53.38 132.65 19.35 32.08 159.17 119 201.29 151.15 8.42 6.43 12.96 16.62 16.4 19.22-168.33 69.27-340.15 136.83-524.08 151.92-211.68 17.36-500.98-19.3-699.92-95.92-46.25-17.81-169.56-82.52-208-112-28.91-22.17-123.88-108.06-152-136-150.3-149.33-355.84-429.73-483.31-608.69-169.44-237.89-218.76-601.65-180.69-887.31 39.49-296.29 210.94-485.38 376.54-715.83 7.3-10.16 6.15-26.41 7.46-28.17 141.1-189.01 302.02-377.56 432.22-579.78 46.91-72.86 137.89-213.78 141.8-298.51 1.69-36.62-16.14-37.03-45.92-45.75-119.74-35.07-265.27-10.35-384.1-67.95 53.82-88.53 180.45-324.11 202.51-417.45 23.2-98.15-99.31-368.6-145.1-467.96-70.19-152.32-155.03-325.82-257.41-458.59 95.77 3.11 195.15 9.9 289.47 26.53 54.82 9.66 209.66 46.43 254.53 69.47Zm93.75 281.6c-77.8 17.6-174.44 260.77-96.18 284.95 80.79 24.96 158.84-146.84 162.52-210.79 2.73-47.49-11.24-86.62-66.34-74.16m114.21 94.44c-24.43-4.48-12.2 7.6-16.67 18.88-22.17 56.08-49.75 108.96-71.21 165.08 57.38-39.81 89.63-114.89 87.88-183.96" fill="#fffdf2"/>
        <path d="M10712 2464c-7.62 112.18 117.57 130.18 186.66 177.34 72.09 49.2 37.66 70.74-31.65 77.68s-283.81-23.78-185.62 115.59c26.08 37.01 169.06 125 139.21 165.97-32.41 44.48-321.38-119.22-289.21 47.79 9.59 49.78 205.27 277.82 39.12 209.12-70.11-28.99-243.6-179.23-226.37 10.45 3.25 35.8 79.59 200.77 35.28 211.6-75.33-3.03-179.24-202.83-256.16-144.24-43.9 33.44-.86 196.73-11.48 252.47-19.7 103.36-123.06-79.63-135.98-95.57-52.64-64.97-122.45-111.86-171.87-12.27-29.89 60.22-29.79 255.98-127.34 239.95-96.84-15.92-110.71-254.41-256.1-231.45-110.1 17.39-103.17 279.02-223.79 263.41-103.02-13.33-104.56-269.82-224.54-264.39-123.59 5.59-123.87 257.99-248.05 249.03-115.19-8.31-106.57-275.87-223.27-272.14-118.09 3.77-140.77 342.42-292.27 235.11-74.57-52.82-90.46-242.65-188.46-235.91-99.64 6.85-89.83 210.83-177.3 263.24-143.79 86.17-208.4-221.22-309.12-205.35-104.22 16.42-32.05 270.79-153.07 319.14-122.58 48.98-217.43-165.79-310.91-151.17-99.26 15.53-36.72 219.81-55.68 288.69-51 185.22-237.61-13.69-317.53-30.5-157.56-33.13-94.52 165.56-80.49 252.42-241.02-311.34-545.98-628.06-856-872l382.13-101.87c838.17-248.01 1589.82-954.99 2485.54-1002.46 650.29-34.46 1449.41 96.65 2084.33 240.33Z" fill="#cccac2"/>
        <path d="M5584 2640c594.23-210.04 1065.12-663.09 1662.02-869.98 629.06-218.04 1313.71-243.57 1973.65-217.69 214.31 8.4 469.24 13.87 679.33 48.67 180.9 29.97 507.35 278.95 663.53 392.47 276.28 200.8 542.86 416.39 805.42 634.58-5.04 10.18-22.12.32-30.55-1.45-203.84-42.84-416.6-115.33-625.41-162.58-634.92-143.68-1434.04-274.79-2084.33-240.33-895.72 47.47-1647.37 754.45-2485.54 1002.46l-382.13 101.87c-66.21-52.1-232.37-151.06-272.05-211.95-47.56-72.99 19.75-285.91 47.9-368.2 12.94-37.84 35.91-75.22 48.15-107.85Z" fill="#e5e4da"/>
        <path d="M4528 2696c-1.31 1.76-.16 18.01-7.46 28.17-165.6 230.46-337.05 419.55-376.54 715.83-237.34-20.6-475.17-49.11-703.97-116.03-390.26-114.14-750.62-315.35-1137.72-438.28C1798.9 2725.83 1145.09 2728.54 616 2720c-185.22-2.99-390.37 13.28-572.12 0-8.71-.64-26.65 4.45-19.81-11.89 4.7-11.22 152.36-146.65 175.82-168.22 290.92-267.53 893.99-769.15 1291.75-796.25 123.1-8.38 290.65 20.75 413.84 42.88 921.11 165.49 1698.77 755 2622.52 909.48" fill="#e5e4da"/>
        <path d="M4144 3440c-38.07 285.65 11.25 649.41 180.69 887.31C4452.16 4506.27 4657.7 4786.67 4808 4936c-66.55 64.38-124.31 129.05-216 56-27.25-98.95-62.15-214.09-144-280-2.84-2.29-5.03-5.96-8-8-112.8-77.53-206.7 1.66-288 80-51.69-48.95-112.33 1.72-120 64-215.82-9.26-73.36-344.06-250.15-401.85-171.08-55.92-288.7 200.76-433.89 97.89-124.07-87.9-6.75-339.25-154.07-397.93-153.26-61.05-251.13 156.39-403.64 107.58-179.67-57.5-52-335.76-198.17-401.72-150.94-68.11-254.78 222.71-442.62 130.58-128.78-63.17-78.59-258.89-181.14-330.86-146.61-102.89-235.3 196.35-348.91 204.22-136.56 9.47-17.29-320.04-191.4-303.92-72.42 6.7-188.77 170.17-228.44 140.59-49.46-36.88 88.39-221.85 24.88-288.97-64.75-68.44-206.89 92.17-280.96 73.18-63.85-16.37 35.63-157.69 49.95-191.37 34.77-81.78 29.71-133.65-75.56-115.52-47.08 8.11-187.64 102.49-218.29 37.96-30.67-64.57 250.2-311.8 17.25-286.97-49.51 5.28-188.5 82.35-217.12 23.03-27.81-57.65 110.29-162.91 116.29-223.93 529.08 8.54 1182.9 5.83 1686.31 165.69 387.1 122.93 747.46 324.14 1137.72 438.28 228.81 66.92 466.64 95.43 703.97 116.03Z" fill="#cccac2"/>
        <path d="M7160 5096c63.63 43.98 157.15 199.72 167.31 276.67 13 98.51-59.64 262.31-97.33 357.31-43.09 108.62-155.42 393.26-277.97 422.03-13 3.05-33.51-2.12-48 0-48.31-49.32 57.47-252.82-16.17-283.8-102.16-42.97-200.62 137.5-281.79 98.01-96.14-46.77 26.61-193.45 26.56-274.23-.03-48.81-52.26-119.87-104.47-95.8-38.64 17.81-145.65 209.46-186.23 121.91-38.19-82.38 81.03-234.35 130.44-297.75 16.94-21.74 117.43-128 119.41-136.86 2.68-12.01-7.48-12.65-13.05-18.18-50.5-50.17-130.22-94.53-186.69-137.29-3.43-2.6-7.98-12.8-16.4-19.22-42.12-32.16-181.94-119.07-201.29-151.15-25.4-42.12.56-123.34 53.38-132.65 188.68 41.27 376.56 87.7 558.28 153.05 38.94 14 121.36 60.56 149.83 66.41 16.83 3.46 33.37-6.91 51.75-4.74 46.07 5.45 134.81 30.29 172.44 56.3Z" fill="#f2800e"/>
        <path d="M4432 4712c5.33-.13 10.67.09 16 0 81.85 65.91 116.75 181.05 144 280 13.64 49.53 18.6 106.5 32.34 155.65 2.47 8.84 1.91 16.19 12.71 19.77 26.59 8.81 277.27-81.84 322.95-95.42 38.44 29.48 161.75 94.19 208 112-141.64 126.04-289.85 243.44-448.68 347.32-21.29 13.92-91.94 45.5-101.21 54.79-11.38 11.41-27.96 51.91-45.8 70.2-96.91 99.31-285.91 110.08-410.56 65.94-85.98-30.45-124.69-90.71-174.8-161.2-80.52-113.26-258.79-387.33-274.09-517.91-3.73-31.84-3.8-138.04 42.92-139 45.97-.95 139.71 157.86 200.38 160.42 104.48 4.42 68.18-154.39 75.83-216.55 7.67-62.28 68.31-112.95 120-64 26.37 24.97 55.82 97.29 81.37 130.63 38.09 49.69 99.51 93 161.78 52.51 77.83-50.6-86.57-252.03 36.85-255.14Z" fill="#f2800e"/>
        <path d="M4472 360c102.37 132.77 187.22 306.27 257.41 458.59 45.79 99.37 168.3 369.82 145.1 467.96-22.07 93.33-148.7 328.92-202.51 417.45-112.32 184.77-436.95 593.71-655.59 628.41-274.56 43.56-176.75-220.41-134.13-382.13 58.63-222.45 145.06-436.71 206.43-658.34-138.2-243.81-264.63-548.13-281.04-831.6-17.97-310.35 141.85-547.14 447.66-319.66 63.47 47.21 167.92 156.1 216.67 219.33Zm-304 952c-38.74 231.38-189.95 489.08-245.72 726.28-20.8 88.45-58.64 224.29 84.26 188.22 135.88-34.3 412.01-382.2 496.02-504 7.47-10.83 16.24-20.56 17.44-34.49 33.38-20.79 170.91-279.5 193.8-330.58 4.98-11.11 3.59-22.97 6.2-29.42 5.95-14.66 9.89-21.75 16-40 5.21-15.57 19.01-27.63 22.05-54.27 2.04-17.85 2.14-24.07-1.88-41.82-22.63-99.87-118.21-295.53-165.3-394.79-91.1-191.99-309.31-622.03-562.95-597.15-75.08 7.36-115.35 54.65-130.04 125.89-41.39 200.78 60.5 500.44 143.25 684.99 30.26 67.48 117.21 201.99 131.51 261.19 4.46 18.47-2.12 24.85-4.64 39.94Z" fill="#f1800f"/>
        <path d="m5016 456 339.99-440.19 20.06 5.03c3.18 63.42 20.96 125.17 31.95 187.15 7.38 41.63 10.65 85.92 16.05 127.99 5.83 6.7 112.23-42.16 127.95-47.99 74.2-27.5 149.52-53.09 223.95-79.96-10.87 77.37-24.46 155.48-39.95 231.96-3.94 19.46-37.92 137.63-31.95 143.97L5856 543.99l191.96-36.04L5616 991.99c-136.03-230.52-369.63-417.65-600-536Z" fill="#ffc003"/>
        <path d="M3117.69 1097.61c15.3-4.57 29.1-1.4 44.24.46 51.65 6.36 221.93 52.62 272.01 71.99 31.53 12.19 56.55 30.56 16.39 52.27-110.72 2.51-222.26-6.97-332.69-15.97-48.05-19.19-46.72-94.79.05-108.75" fill="#3b230a"/>
        <path d="M3502.04 1489.33c12.72-1.41 19.43-1.33 25.36 11.61l-6.86 31.64c-58.92 32.15-220.25 193.39-276.67 195.99-67.85 3.13-81.69-76.07-27.49-108.19z" fill="#3b230a"/>
        <path d="M3381.79 633.64c12.22-2.69 24.27-3.75 36.48-.09 37.39 11.19 159.88 233.02 201.55 270.7 15.32 34.05-9.02 50.86-40.29 32.18-21.35-12.76-214.53-192.77-227.55-212.35-23.26-34.96-13.39-80.92 29.81-90.43Z" fill="#3b230a"/>
        <path d="m5736 440 175.96-39.96L5856 544l-151.95 39.97c-5.97-6.34 28.01-124.51 31.95-143.97" fill="#ce9c05"/>
        <path d="M5408 208c23.54-2.93 134.31-65.89 143.96-55.97L5552 288c-15.72 5.83-122.12 54.69-127.95 47.99-5.39-42.07-8.66-86.35-16.05-127.99" fill="#ce9c05"/>
        <path d="M5109.75 737.6c55.1-12.46 69.07 26.67 66.34 74.16-3.67 63.95-81.73 235.75-162.52 210.79-78.26-24.18 18.37-267.35 96.18-284.95" fill="#060606"/>
        <path d="M5223.96 832.04c1.75 69.07-30.49 144.15-87.88 183.96 21.46-56.12 49.04-109 71.21-165.08 4.46-11.28-7.77-23.36 16.67-18.88" fill="#cccac2"/>
        <path d="M4448 4712c-5.33.09-10.67-.13-16 0l8-8c2.97 2.04 5.16 5.71 8 8" fill="#e5e4da"/>
        <path d="M4736 1288c-55.62-79.05-184.17-111.25-276.31-104.27-112.63 8.52-200.45 70.33-291.69 128.27 2.53-15.09 9.11-21.47 4.64-39.94-14.3-59.19-101.26-193.71-131.51-261.19-82.75-184.55-184.64-484.22-143.25-684.99 14.69-71.25 54.96-118.53 130.04-125.89 253.64-24.88 471.85 405.16 562.95 597.15 47.1 99.26 142.68 294.92 165.3 394.79 4.02 17.75 3.92 23.97 1.88 41.82-3.04 26.63-16.84 38.69-22.05 54.27Z" fill="#743900"/>
        <path d="M4736 1288c-6.11 18.25-10.05 25.34-16 40-62.63-35.18-164.09-14.08-180.47 63.53-9.97 47.23 3.92 138.74-85.97 86.95-63.96-36.85 72.01-109.71-9.38-174.65-68.45-54.61-182.45-16.43-226.89 53.46-50.35 79.18-19.01 158.05 30.71 226.71-102.66 97.01-248.94 223.72-240.42 380.22 4.16 76.47 45.1 117.24 112.6 63.96s229.01-308.49 303.83-324.18c29.39-6.17 62.39 4.93 96-16-1.2 13.93-9.98 23.67-17.44 34.49-84.01 121.8-360.14 469.7-496.02 504-142.9 36.07-105.06-99.77-84.26-188.22 55.77-237.19 206.98-494.9 245.72-726.28 91.24-57.94 179.06-119.75 291.69-128.27 92.14-6.97 220.69 25.23 276.31 104.27Z" fill="#683401"/>
        <path d="M4720 1328c-2.62 6.45-1.22 18.31-6.2 29.42-22.89 51.08-160.41 309.79-193.8 330.58-33.61 20.93-66.61 9.83-96 16-1.3-103.75-84.79-134.1-176-120-49.72-68.66-81.06-147.53-30.71-226.71 44.44-69.88 158.44-108.07 226.89-53.46 81.4 64.94-54.58 137.8 9.38 174.65 89.89 51.79 76-39.72 85.97-86.95 16.38-77.61 117.84-98.71 180.47-63.53" fill="#351b00"/>
        <path d="M4424 1704c-74.81 15.69-236.33 270.9-303.83 324.18-67.49 53.28-108.44 12.52-112.6-63.96-8.52-156.5 137.76-283.21 240.42-380.22 91.21-14.1 174.7 16.25 176 120Z" fill="#fc6596"/>
        <path d="m4342.47 1592-164.04 151.91c-12.88 16.41-87.77 115.05-75.84 128.06 16.69 3.66 18.12-8.65 25.71-18.2 20.9-26.28 36.14-59.35 58.12-85.86 51.16-61.73 120.35-117.63 188.03-159.9 29.9 22.78 58.08 56.3 44.07 96.01-58.54 49.98-115.55 103.55-166.8 160.9-39.13 43.79-126.16 181.77-179.08 189.7-50.94 7.63-67.47-68-66.57-106.72 2.03-87.36 80.31-213.27 141.31-275.05 11.95-12.1 85.01-74.07 96.13-79.84 33.48-17.36 66.27-9.89 98.96-1Z" fill="#ff6799"/>
        <path d="M4374.46 1608c-67.69 42.27-136.87 98.17-188.03 159.9-21.97 26.51-37.22 59.58-58.12 85.86-7.59 9.54-9.02 21.86-25.71 18.2-11.93-13.01 62.95-111.65 75.84-128.06l164.04-151.91c6.75 1.84 14.34-.89 23.51 4.18 5.47 3.02 6.42 10.25 8.48 11.82Z" fill="#ff518a"/>
    </g>
</svg>
