<?xml version="1.0" encoding="UTF-8"?>
<svg data-bbox="0 -0.01 6799.98 728.02" viewBox="0 0 6799.98 728" xmlns="http://www.w3.org/2000/svg" data-type="color">
    <g>
        <path d="M6004.21 56c.12 4-.18 8.03-.02 12.01h60.02c7.19 17.98 3.43 36.44 4 55.99.12 4-.18 8.03-.02 12.01h64.02c5.49 19.73 3.51 31.87 4 51.99 3.39 138.44-2.53 277.52 0 416h-62l-6 6v62c-135.9-1.4-272.12 1.88-408 0-19.22-.27-38.58.02-57.84.26-4.85-1.31-.99-10.31-2.16-12.26v-52.03c-2.65-.19-5.34.16-8 .03-19.14-.93-38.64.51-57.84.26-4.85-1.31-.99-10.31-2.16-12.26v-56.03c-2.65-.19-5.34.16-8 .03-19.86-.97-40.12.7-60 0V68h68V0h466c10.81 13.49 5.47 38.15 6 56m-68 80V74l-6-6h-330v68h-68v136h68v64h262l6 6v130h-200v-62l-6-6h-130v68h68v68h336v-68h64V340l-64-4v-64h-268V136h200v68h132v-68z" fill="#ad4fbf" data-color="1"/>
        <path d="M700.21 540c-18.51-2.36-40.94 1.71-60 0V68h68V0h472c.39 18.59-.54 37.42 0 56 .12 4-.18 8.03-.02 12.01h60.02c11.05 22.38 8.51 30.08 8 55.99-.02.78-3.13 1.74-3.3 3.26-1.66 15.59 51.48 6.36 63.3 8.74 5.49 19.74 3.51 31.87 4 52 3.39 138.44-2.53 277.52 0 416h-64v68c-137.23-1.42-274.79 1.9-412 0-19.22-.27-38.58.02-57.84.26-4.85-1.31-.99-10.31-2.16-12.26v-52.03c-2.65-.19-5.34.16-8 .03-19.08-.93-38.52.53-57.66.25.19-7-10.1-15.31-10.34-16.25 12.08 2.23 7.74-6.1 8-13.81.4-11.91-.33-23.9.07-35.8.45-4.35-5.17-2.02-8.07-2.39m412-472h-336v68h-68v136h68v64h268v136h-200v-68h-136v68h68v68h336v-68h68V342l-6-6h-62v-64h-268V136h200v68h136v-68h-68z" fill="#ad4fbf" data-color="1"/>
        <path d="M2376.21 540c-19.86-.97-40.12.7-60 0V0h268c1.85 17.47-2.56 39.26 0 56 .42 2.75-.02 5.65 1.74 8.12 5.35 6.33 38.08 4.41 48.55 4 5.26-.2 9.03-4.07 9.72-4.13 1.26-.11 7.02 5.55 7.96 4.01l.04-68.01h268c1.32 18.08-1.83 38.26 0 56 .64 6.19-1.39 12.83 6.56 15.44l57.44-3.44c5.75 20.65 3.53 34.81 4 56 3.56 159.78-2.66 320.18 0 480h-62l-6 6v62c-135.9-1.4-272.12 1.88-408 0-19.22-.27-38.58.02-57.84.26-4.85-1.31-.99-10.31-2.16-12.26v-52.03c-2.65-.19-5.34.16-8 .03-19.14-.93-38.64.51-57.84.26-4.85-1.31-.99-10.31-2.16-12.26v-56.03c-2.65-.19-5.34.16-8 .03Zm144-68V74l-6-6h-130v404h68v68h336v-68h68V74l-6-6h-130v404z" fill="#ad4fbf" data-color="1"/>
        <path d="M3660.21 56c.12 4-.18 8.03-.02 12.01h60.02c9.56 19.36 10.71 32.43 8 55.99-.16 1.36-6.64 5.99-3.98 11.98l63.98.02c5.67 20.38 2.79 31.9 4 52 .32 5.31-.29 10.72-.02 16.02l64.02-.02c4.21 20.07 3.57 31.5 4 52 1.96 94.52-1.46 189.46 0 284h-68v64h-62l-6 6v62c-135.9-1.4-272.12 1.88-408 0-19.22-.27-38.58.02-57.84.26-4.85-1.31-.99-10.31-2.16-12.26v-52.03c-2.65-.19-5.34.16-8 .03-19.86-.97-40.12.7-60 0V0h466c10.81 13.49 5.47 38.15 6 56m-68 80V74l-6-6h-330v472h336v-68h64v-62l6-6h62V204h-62l-6-6v-62z" fill="#ad4fbf" data-color="1"/>
        <path d="M5132.21 56c.12 4-.18 8.03-.02 12.01h60.02c11.05 22.38 8.51 30.08 8 55.99-.02.78-3.13 1.74-3.3 3.26-1.66 15.59 51.48 6.36 63.3 8.74 5.49 19.74 3.51 31.87 4 52 3.39 138.44-2.53 277.52 0 416h-62l-6 6v62c-135.9-1.4-272.12 1.88-408 0-19.22-.27-38.58.02-57.84.26-4.85-1.31-.99-10.31-2.16-12.26v-52.03c-2.65-.19-5.34.16-8 .03-19.14-.93-38.64.51-57.84.26-4.85-1.31-.99-10.31-2.16-12.26v-56.03c-2.65-.19-5.34.16-8 .03-19.86-.97-40.12.7-60 0V68h68V0h466c10.81 13.49 5.47 38.15 6 56m-68 80V74l-6-6h-330v68h-68v336h68v68h336v-68h68V136z" fill="#ad4fbf" data-color="1"/>
        <path d="M2052.21 56c.12 4-.18 8.03-.02 12.01h60.02c1.45 2.14 6.42 1.57 7.94 9.9 2.05 11.24.56 33.48.06 46.1-.03.71-4.12 6.35-4.29 13.53-1.1 44.74 1.42 89.77.29 134.47h-132v400c-69.25-.71-138.76.96-208 0-19.22-.27-38.58.02-57.84.26-4.85-1.31-.99-10.31-2.16-12.26v-52.03c-2.65-.19-5.34.16-8 .03-19.86-.97-40.13.69-60.02.02-.9-117.25 1.28-234.77.02-352.02-.19-17.29.13-34.74.02-52.02-25.28-.13-50.74.24-76.02.02-19.94-.17-40.06.12-60 0V0h534c10.81 13.49 5.47 38.15 6 56m-68 80V74l-6-6h-398v68h136v404h132V136z" fill="#ad4fbf" data-color="1"/>
        <path d="M6740.21 132c4.99 90.23 8.43 238.06.15 326.15-2.27 24.13-12.65 42.33-38.06 45.94-108.45-3.33-217.78 4.17-326.09-.09-30.1-1.18-49.02-.46-59.77-34.23l2.8-364.75c10.75-17.99 22.5-23.27 42.82-25.18 106.36-9.99 228.12 7.77 336.15.16 34.1 4.9 40.3 21.21 42 52" fill="#ac4dbf" data-color="2"/>
        <path d="M424.21 132c-.06 3.17-6.31 11.84-4.17 17.71-8.42 100.99 11.82 221.8.26 320.38-2.94 25.04-19.48 31.96-41.94 34.06-90.11 8.43-225.22 2.98-318.15-.15-27.85-.94-50.77 3.46-59.77-30.23L0 113.79c2.08-15.61 22.1-32.96 38.12-33.88 108.25 9.75 238.62-12.7 344.18 0 28.42 3.42 42.45 24.48 41.91 52.09" fill="#ac4dbf" data-color="2"/>
        <path d="M4120.21 608c-18.31 2.5-41.06-1.81-60 0V0h268c.39 18.59-.54 37.42 0 56 .12 4-.18 8.03-.02 12.01h60.02c11.7 23.7 7.4 29.57 8 55.99 4.14 182.42-3.11 365.55.02 548.02-69.26-.68-138.77.85-208.02-.02-20.54-.26-41.21.03-61.79.22-4.85-1.3-1.23-8.68-2.21-12.22l3.97-55.98c-5.01-1.78-7.53 3.92-7.97 3.98m140-540h-132v472h132z" fill="#ad4fbf" data-color="1"/>
        <path d="M2988.21 124h60v536h-64v68h-472v-56c135.88 1.88 272.1-1.4 408 0v-62l6-6h62c-2.66-159.82 3.56-320.22 0-480" fill="#492351" data-color="3"/>
        <path d="m1312.21 188 60.25 1.75 3.75 8.25-6.01 462.01h-62v68h-472v-56c137.21 1.9 274.77-1.42 412 0v-68h64c-2.53-138.48 3.39-277.56 0-416Z" fill="#492351" data-color="3"/>
        <path d="M5264.21 188h60v472h-64v68h-472v-56c135.88 1.88 272.1-1.4 408 0v-62l6-6h62c-2.53-138.48 3.39-277.56 0-416" fill="#492351" data-color="3"/>
        <path d="M6136.21 188h60v472h-64v68h-472v-56c135.88 1.88 272.1-1.4 408 0v-62l6-6h62c-2.53-138.48 3.39-277.56 0-416" fill="#492351" data-color="3"/>
        <path d="M3860.21 256h60v340h-64v64h-68v68h-472v-56c135.88 1.88 272.1-1.4 408 0v-62l6-6h62v-64h68c-1.46-94.54 1.96-189.48 0-284" fill="#492351" data-color="3"/>
        <path d="M2120.21 124h60v200h-136v404h-268v-56c69.24.96 138.75-.71 208 0V272h132c1.12-44.71-1.39-89.73-.29-134.47.18-7.17 4.26-12.82 4.29-13.53" fill="#492351" data-color="3"/>
        <path d="M4396.21 124h60v604h-268v-56c69.25.87 138.76-.66 208.02.02-3.13-182.47 4.12-365.6-.02-548.02" fill="#492351" data-color="3"/>
        <path d="M60.21 504c92.93 3.13 228.05 8.59 318.15.15 22.46-2.1 39-9.02 41.94-34.06 11.56-98.58-8.68-219.39-.26-320.38-2.14-5.87 4.11-14.53 4.17-17.71 28.13-2.05 53.95 8.09 59.74 38.26-7.32 110.43 10.63 235.19.41 343.9-2.87 30.57-15.41 43.12-46 46-108.72 10.23-233.48-7.76-343.93-.38-25.46-6.89-38.58-29.49-34.23-55.77Z" fill="#492351" data-color="3"/>
        <path d="M6376.21 504c108.31 4.26 217.64-3.24 326.09.09 25.42-3.61 35.8-21.81 38.06-45.94 8.28-88.1 4.83-235.92-.15-326.15 23.51-.57 55.5 7.19 59.77 34.23l-2.8 368.75c-10.75 17.99-22.5 23.27-42.82 25.18-107.45 10.09-230.74-7.64-339.9-.41-28.6-6.46-41.53-27.13-38.26-55.74Z" fill="#492351" data-color="3"/>
        <path d="M1572.21 204c25.28.22 50.74-.15 76.02-.02.11 17.29-.21 34.73-.02 52.02l-76.02.02z" fill="#492351" data-color="3"/>
        <path d="m3792.21 188 64.02-.02c.73 5.03-.99 11.42-.02 16.02l-64.02.02c-.27-5.3.34-10.71.02-16.02" fill="#733380" data-color="4"/>
        <path d="m2920.21 56 61.79-.22c4.85 1.3 1.23 8.68 2.21 12.22l-57.44 3.44c-7.96-2.61-5.93-9.25-6.56-15.44" fill="#492351" data-color="3"/>
        <path d="m3728.21 124 57.79-.22c4.85 1.3 1.23 8.68 2.21 12.22l-63.98-.02c-2.66-5.99 3.82-10.62 3.98-11.98" fill="#492351" data-color="3"/>
        <path d="m6068.21 124 61.79-.22c4.85 1.3 1.23 8.68 2.21 12.22h-64.02c-.15-3.97.14-8 .02-12" fill="#492351" data-color="3"/>
        <path d="m1248.21 124 57.79-.22c4.85 1.3 1.23 8.68 2.21 12.22-11.82-2.38-64.96 6.84-63.3-8.74.16-1.52 3.28-2.48 3.3-3.26" fill="#492351" data-color="3"/>
        <path d="m5200.21 124 57.79-.22c4.85 1.3 1.23 8.68 2.21 12.22-11.82-2.38-64.96 6.84-63.3-8.74.16-1.52 3.28-2.48 3.3-3.26" fill="#492351" data-color="3"/>
        <path d="m1180.21 56 57.81-.24c5.02 1.33.93 9.7 2.19 12.24h-60.02c-.15-3.97.14-8 .02-12" fill="#492351" data-color="3"/>
        <path d="m5132.21 56 57.81-.24c5.02 1.33.93 9.7 2.19 12.24h-60.02c-.16-3.97.14-8 .02-12" fill="#492351" data-color="3"/>
        <path d="m4328.21 56 57.81-.24c5.02 1.33.93 9.69 2.19 12.24h-60.02c-.15-3.97.14-8 .02-12" fill="#492351" data-color="3"/>
        <path d="m3660.21 56 57.81-.24c5.02 1.33.93 9.7 2.19 12.24h-60.02c-.16-3.97.14-8 .02-12" fill="#492351" data-color="3"/>
        <path d="M2584.21 56h60.03l-.03 8c-.69.06-4.45 3.92-9.72 4.13-10.47.4-43.2 2.33-48.55-4-1.75-2.47-1.32-5.37-1.74-8.12Z" fill="#492351" data-color="3"/>
        <path d="M6064.21 68h-60.02c-.16-3.97.14-8 .02-12l53.52.56c6.96 2.22 4.89 7.47 6.48 11.44" fill="#492351" data-color="3"/>
        <path d="M2112.21 68h-60.02c-.16-3.97.14-8 .02-12l53.55.56c7.12 2.29 4.88 9.13 6.45 11.44" fill="#492351" data-color="3"/>
        <path d="M2376.21 540c2.66.13 5.35-.21 7.99-.03V596c-.21-.36-6.88 1.6-8.03-2.66-3.52-13.04 2.55-38.37.04-53.34" fill="#733380" data-color="4"/>
        <path d="M4652.21 540c2.66.13 5.35-.21 7.99-.03V596c-.21-.36-6.88 1.6-8.03-2.66-3.52-13.04 2.55-38.37.04-53.34" fill="#492351" data-color="3"/>
        <path d="M5524.21 540c2.66.13 5.35-.21 7.99-.03V596c-.21-.36-6.88 1.6-8.03-2.66-3.52-13.04 2.55-38.37.04-53.34" fill="#733380" data-color="4"/>
        <path d="M4120.21 608c.44-.06 2.97-5.76 7.97-3.98l-3.97 55.98c-5.09-18.29-4.65-32.62-4-52" fill="#733380" data-color="4"/>
        <path d="M700.21 540c2.91.37 8.53-1.96 8.07 2.39-.41 11.9.33 23.89-.07 35.8-.26 7.71 4.08 16.05-8 13.81-3.31-13.04 2.35-37.23 0-52" fill="#492351" data-color="3"/>
        <path d="M768.21 608c2.66.13 5.35-.21 7.99-.03V660c-.21-.36-6.88 1.6-8.03-2.66-3.28-12.16 2.36-35.38.04-49.34" fill="#733380" data-color="4"/>
        <path d="M1708.21 608c2.66.13 5.35-.21 7.99-.03V660c-.21-.36-6.88 1.6-8.03-2.66-3.28-12.16 2.36-35.38.04-49.34" fill="#733380" data-color="4"/>
        <path d="M2444.21 608c2.66.13 5.35-.21 7.99-.03V660c-.21-.36-6.88 1.6-8.03-2.66-3.28-12.16 2.36-35.38.04-49.34" fill="#733380" data-color="4"/>
        <path d="M3248.21 608c2.66.13 5.35-.21 7.99-.03V660c-.21-.36-6.88 1.6-8.03-2.66-3.28-12.16 2.36-35.38.04-49.34" fill="#733380" data-color="4"/>
        <path d="M4720.21 608c2.66.13 5.35-.21 7.99-.03V660c-.21-.36-6.88 1.6-8.03-2.66-3.28-12.16 2.36-35.38.04-49.34" fill="#733380" data-color="4"/>
        <path d="M5592.21 608c2.66.13 5.35-.21 7.99-.03V660c-.21-.36-6.88 1.6-8.03-2.66-3.28-12.16 2.36-35.38.04-49.34" fill="#733380" data-color="4"/>
        <path fill="#fdfcfe" d="M5936.21 136h64v68h-132v-68h-200v136h268v64l64 4v132h-64v68h-336v-68h-68v-68h130l6 6v62h200V342l-6-6h-262v-64h-68V136h68V68h330l6 6z" data-color="5"/>
        <path fill="#fdfcfe" d="M1112.21 68v68h68v68h-136v-68h-200v136h268v64h62l6 6v130h-68v68h-336v-68h-68v-68h136v68h200V336h-268v-64h-68V136h68V68z" data-color="5"/>
        <path fill="#fdfcfe" d="M2520.21 472h200V68h130l6 6v398h-68v68h-336v-68h-68V68h130l6 6z" data-color="5"/>
        <path d="M3592.21 136h64v62l6 6h62v200h-62l-6 6v62h-64v68h-336V68h330l6 6zm-68 0h-136v336h136v-68h68V204h-68z" fill="#fdfcfe" data-color="5"/>
        <path d="M5064.21 136h68v336h-68v68h-336v-68h-68V136h68V68h330l6 6zm-68 0h-200v336h200z" fill="#fdfcfe" data-color="5"/>
        <path fill="#fdfcfe" d="M1984.21 136h-136v404h-132V136h-136V68h398l6 6z" data-color="5"/>
        <path fill="#ffffff" d="M4260.21 68v472h-132V68z" data-color="6"/>
        <path fill="#ad4fbf" d="M3524.21 136v68h68v200h-68v68h-136V136z" data-color="1"/>
        <path fill="#ac4dbf" d="M4996.21 136v336h-200V136z" data-color="2"/>
    </g>
</svg>
