<?xml version="1.0" encoding="UTF-8"?>
<svg data-bbox="0.001 -0.001 9315.05 2612.011" viewBox="0 0 9315.05 2612.01" xmlns="http://www.w3.org/2000/svg" data-type="color">
    <g>
        <path d="M6043.19 2371.98c-13.14 1.54-26.96-.03-39.98 4.02l-52.06-326.18c-10.14-32.53 37.03-19.04 43.8-26.05 5.31-5.5-6.89-48.77-3.79-51.79l341.58-52.24 10.49 44.27c11.14-4.9 46.59-12.05 51.4 2.54 2.02 6.12 1.21 34.25 4.72 37.28 3.84 3.32 36.97-10.1 48.12-2.12 4.8 3.44 6.29 33.72 7.72 42.26 16.57 99.13 30.87 198.76 48.12 297.81l-48.04 10.35 7.93 47.81c-93.58 14.84-187.15 30.25-280.73 45.31-8.46 1.36-17.92 5.9-23.28 6.72-10.26 1.56-30.25 4.14-40 4l-5.85-44.13c-5.67-9.13-12.96.06-14.15.13-12.2.76-25.69 3.9-36 4l-8.03-48c-5.63-2.48-10.66 3.85-11.97 4Zm252-396.02-248.02 40.07 8.05 47.94c-7.86 1.07-45.29 4.94-47.57 8.48-2.5 3.9 10.69 87.94 13.31 91.77 8.17 11.96 41.85-4.85 49.78.23 3.58 2.29 7.37 39.72 8.49 47.56l196.39-29.73 15.61 97.71-148.04 20.03c.26-9.45-1.81-45.4-10.26-47.56-12.45-3.17-74.78 18.03-93.64 15.62-3.64 80.04 36.7 32.57 55.39 44.44 3.77 2.4 7.38 39.56 8.55 47.48l243.56-40.39-3.6-51.63 46.38-7.83-14.37-96.18-48.15 6.38-7.82-46.39-199.97 27.98c2.63-14.91-18.33-90.44-9.72-96.41 16.91-11.73 113.63-13.18 139.18-23.81 6.16.88 9.16 40 10.59 48.18l99.93-15.97-8.03-47.97-48.15 6.38-7.84-46.38Z" fill="#ac4dbf" data-color="1"/>
        <path d="M2575.19 2439.98c-9.14-1.41-42.9-3.24-46.3-7.88l6.33-48.1c-55.99-3.7-48.81-3.66-44.25-55.81l-47.79-8.26 53.86-340.12c4.85-7.73 40.15 3.37 50.13 4.19 5.81-20.49-5.16-54.45 25.86-48.05l318.33 50.05 8.16 4.53c-2.01 9.72-2.79 19.73-4.33 29.46-.74 4.69-8.81 12.64-.15 18.15 6.14 3.91 34.63 4.52 44.15 5.85-.97 10.48.98 21.52 0 32-.3 3.2-7.73 12.39-4.02 19.99l48.02 4.01c-1.43 10.7-1.96 21.28-4 32-19.56 102.73-33.78 206.98-51.74 310.33l-48.23-6.33c-3.32 15.65 2.39 49.49-17.99 48.34-95.13-16.09-190.72-29.64-286.03-44.34Zm267.99-411.97-247.99-36.05-7.86 46.35-48.13-6.34-16 99.99 48.02 4.01c4.23 9.86-7.4 47.34-3.69 51.71 6.4 7.57 192.3 22.75 195.2 34.6 1.14 4.65-13.12 93.33-17.86 93.97l-141.68-20.26 3.92-51.91-99.92-12.11c3.14 9.3-8.2 43.24-3.8 47.84 3.24 3.39 41.44 1.66 46.12 8.05 5.21 7.12-14.01 38.63 1.35 46.42l238.11 37.79 6.25-48.09c9.88-.94 41.96 10.99 48.18 6.38 5.43-4.03 19.34-94.86 15.76-98.33l-43.97-4.04 4.03-52-196.07-30.05c3.91-13.59 11.06-96.88 18.6-98.28l141.46 20.32c3.77 9.72-8.18 47.28-3.83 51.84 3.47 3.64 87.21 12.4 99.83 12.19l4.01-48.03c-54.01-1.66-51.74-5.97-40.04-55.97" fill="#ac4dbf" data-color="1"/>
        <path d="M3723.19 2459.98c-9.42-3.17-44.54 6.16-47.53-6.31l15.51-393.71 199.99 8.06c-.1 11.93.36 24.03.04 35.96-.09 3.37-9.47 11.56 2.63 15.38 8.19 2.59 35.55 2.44 41.37-3.38 8.91-8.91 1.87-34.76 3.98-48.02l200.04 8c-.21 13.29.26 26.73-.02 40.02 0 .46-4.54 2.87-3.84 5.54 2.98 11.36 37.39 4.89 47.84 6.46 4.33 15.75 4.38 23.29 4 40-1.69 74.98-9.09 154.06-11.96 230.04-1.59 42.1 2.39 84.21-4.03 125.98l-48.04-.04.04 48.04c-101.54-4.23-202.87-5.95-304.02-12.02-14.49-.87-29.33.95-43.82-.29-1.33-3.63.65-8.71-.18-11.71-1.62-7.96 4.2-33.46-4-36-13.11-4.05-44.81 5.9-48-16 6.75-6.15 6.41-33.84 0-36m116.02-344.02-100.04-4-8 300.04 48.04-.04-.04 52.04 244.29 6.27c7.91-5.64 1.92-39.55 3.71-50.31 13.2-4.93 47.25 10.26 51.41-2.61l8.63-293.4-100.04-4-7.97 290.03c-3.66 19-25.26 6.47-38.05 6.03-37.99-1.32-76.68 3.55-113.98-4.06z" fill="#ac4dbf" data-color="1"/>
        <path d="m5475.23 1280.04 40.93 12.99c9.33 4.16 61.89 53.1 66.5 61.5 16.99 30.96 30.53 189.07 32.5 231.5 2.02 43.58 6.23 165.16-12.5 199.42-17.03 31.14-92.46 40.3-125.5 42.5-44.36 2.96-95.76-7.05-135.93-3.92-31.72 2.47-70.26 16.24-104.55 19.45-183.34 17.13-342.62-56.66-455.09-199.88-129.47-164.86-97.6-436.56 39.55-587.66 162.36-178.87 526.82-226.31 672.58-4.47 42.01 63.94 83.13 198.86-18.5 228.58Zm-580.04 415.94c95.2 83.41 194.72 117.3 329.96 107.96 39.7-2.74 91.31-23.24 124.22-24.11 13.41-.35 23.09 7.23 35.79 8.18 32.96 2.46 149.15-1.66 175.28-16.78 11.29-6.53 13.91-32.38 14.89-45.11 5.15-66.39-1.56-153.17-8.16-220.13-3.11-31.52-8.38-99.03-17.79-126.21-4.23-12.24-18.59-17.19-30.19-19.81-7.53-36.44-44.68-39.53-77.81-40.19-42.36-.84-162.91 17.34-192.35 48.03-24.12 25.14 1.33 91.27-35.01 108.99-41.52 20.24-102.65.72-134.83-28.83-21.21-72.66-3.76-143.77 66.57-179.43 18.21-9.23 61.68-22.47 81.43-24.57 5.28-.56 15.01 5.03 24 4 3.41 10.54 1.57 23.64 12.9 29.09 35.88 17.28 197.22-21.87 225.28-52.92 18-19.92 3.28-74.25-5.05-99.31-11.76-35.36-25.47-50.62-49.13-76.87-198.53-220.24-594.66-75.15-673.06 196.94-56.74 196.93-15.33 321.04 133.06 451.06Zm355.99-376.05c-7.01-5.02-29.56-30.04-34.44-30.99-26.77-5.22-77.65 27.03-92.13 50.46-12.75 20.62-22.98 74.28-4.4 91.54 8.05 7.47 62.28 17.5 71.24 11.28 5.36-3.72 6.09-55.71 8.7-67.28 6.17-27.38 24.99-45.65 51.03-55.01" fill="#492351" data-color="2"/>
        <path d="M3243.16 979.98c-.44-32.52 9.28-55.5 37.27-72.77 67.33-41.54 279.42-23.31 338.92 30.62 7.5 6.8 34.44 33.26 39.83 40.17 22.1 28.3 12.64 46.82 12.06 76.02-3.99 198.67-34.53 443.52-73.29 638.71-7.95 40.03-12.93 108.72-54.79 125.21-59.02 23.25-225.83 4.58-276.01-35.91-57.05-46.04-100.15-113.56-145.97-170.03-21.37 61.07-13.81 150-96.41 159.55-56.55 6.54-210.48-8.21-252.19-48.94-11.1-10.84-24.05-23.69-34.99-35.02-30.82-31.9-24.18-155.61-22.58-201.8 5.76-166.4 28.44-384.27 66.15-545.85 7.91-33.92 11.36-77.53 45.98-94.02 63.99-30.47 237.8-4.44 301.56 26.56 44.57 21.67 79.8 72.97 114.46 107.5m-447.97 696c.82 6.78 3.23 12.99 7.89 18.1 25.67 28.15 203.55 49.6 235.82 31.61 11.1-6.19 17.29-26.53 21.43-38.57 19.38-56.39 22.51-118.92 42.87-175.13 30.32 44.56 131.49 196.81 172 216 15.34 36.48 67.67 45.38 103.16 50.84 29.62 4.55 134.5 15.72 155.05-2.62 16.32-14.57 44.08-207.57 49.21-242.79 24.88-170.84 44.1-346.67 48.48-519.34-2.57-13.58-20-22.56-31.91-26.09 3.38-33.79-82.2-50.95-107.17-54.83-40.78-6.34-166.54-14.3-196.62 13.05-4.86 4.42-9.58 14.35-11.24 20.76-11.46 44.25-5.75 104.75-12.95 151.02l-7.95 1.98c-36.5-59.52-84.85-172.73-146.79-207.26-55.06-30.7-188.61-45.78-250.27-35.68-6.79 1.11-22.5 4.7-27.01 8.99-13.38 12.72-39.13 175.46-43.44 204.56-21.51 145.3-53.35 380.93-40.06 522.91 2.89 30.91 7.82 51.24 39.48 62.52Z" fill="#492351" data-color="2"/>
        <path d="M471.24 531.98c4.85-.41 6.75-5.49 8.75-9.21 35.12-65.16 74.69-247.34 129.85-282.14 65.09-41.07 187.78 1.93 249.43 37.28 45.46 26.07 133.99 97.91 131.03 154.86-1.61 31.07-24.13 97.57-34.04 130.28-38.58 127.38-146.4 410.04-258.96 481.04-165.17 104.19-423.56 3.33-556.21-116-157.76-141.92-178.06-260.75-86.6-454.81 53.81-114.17 99.05-138.12 225.59-100.18 60.21 18.06 147.28 77.71 180.75 131.25 5.39 8.62 10.62 16.92 10.41 27.63m443.95-152c-58.65-63.6-139.77-112.4-230.09-115.99-56.86-2.26-65.86 20.08-86.6 65.3-49.61 108.16-76.42 233.89-145.65 334.35-16 23.21-35.88 51.02-68.25 37.05-7.82-3.38-4.96-8.45-5.4-8.7-7.78-37.72 61.23-123.5 54.32-151.99-3.06-12.62-15.93-23.08-24.37-32.13-2.9-3.1-9.26-3.14-9.95-3.89-52.09-56.51-102.53-96.83-186.07-103.94-72.2-6.14-85.16 18.61-114.65 77.22C-9.06 691.02 33.13 778.23 203.19 919.97c113.77 94.82 347.41 184.88 483.65 81.65 90.58-68.63 190.26-323.79 225.41-434.59 10.91-34.38 43.3-127.62 31.81-157.95-2.1-5.55-12.17-18.74-16.68-23.49-4.1-4.31-11.52-4.89-12.2-5.63Z" fill="#492351" data-color="2"/>
        <path d="M9035.25 487.98c41.87-15.86 89.46-41.63 129.85-7.9 55.64 46.46 146.03 189.86 149.87 262.44 2.43 46.03-50.47 76.88-84.11 99.13-102.56 67.85-294.86 163.86-412.62 195.38-34.42 9.22-57.23 17.8-89.02-5.07-26.55-19.1-65.11-68.45-83.69-96.31-59.67-89.5-115.12-204.57-161.77-302.23-36.1-75.56-132.18-268.72-136.54-343.54-3.34-57.11 30.87-72.96 73.29-98.58C8520.9 130.67 8692.63 49 8804.05 14.84c39.11-11.99 80.87-27.72 115.22 3.07 55.24 49.51 127.74 173.97 131.69 248.61 2.8 53.04-54.95 76.07-91.79 99.56 26.88 39.56 61.03 75.19 76.07 121.9Zm-304.06 480c.78.77 1.36 7.88 5.72 12.09 7.18 6.94 19.27 22.09 28.4 23.85 34.62 6.66 166.07-53.88 204.59-71.23 78.92-35.57 168.91-79.49 240.96-127.04 17.01-11.23 58.54-35.87 60.64-55.54 3.78-35.52-52.62-141.9-74.64-173.78-6.66-9.64-12.16-22.7-25.65-24.34-8.34-13.03-35.09-47.44-49.93-48.35-23.63-1.45-89.17 32.7-114.07 44.35-1.39-41.41-29.71-94-56.72-125.29-4.57-5.3-6.34-11.01-15.28-10.71-12.84-20.36-33.24-36.38-48-56 19.02-6.37 85.36-43.67 101.31-56.69 7.45-6.08 20.39-15.77 21.56-25.76 3.26-27.7-52.72-149.29-71.57-174.85-5.86-7.95-12.43-17.56-23.3-18.7-22.97-37.11-29.47-44.09-72.03-34.04-98.15 23.18-264.84 106.16-356.05 155.95-21.71 11.85-72.04 37.03-87.74 52.26-21.42 20.79-7.12 57.86.79 82.86 29.68 93.77 88.07 210.41 131.6 300.4 53.03 109.64 115.36 246.73 199.43 330.57Z" fill="#492351" data-color="2"/>
        <path d="M1282.64 1236.54c-20.1-4.72-48.1-21.9-68.6-15.74-6.55 1.97-77.11 83.32-95.19 96.83-42.18 31.51-76.11 15.2-121.72 2.42-39.64-11.1-111.22-33.97-140.55-61.44-4.71-4.41-6.69-13.09-11.74-18.27-23.32-23.92-42.92-27.64-41.77-70.19 1.38-50.8 69.06-172.29 95.45-220.85 63.34-116.59 140.5-242.14 219.12-348.88 63.18-85.76 85.85-136.11 203.73-128.6 104.71 6.67 233.53 44.3 303.41 124.59 58.12 66.78 58.64 268.63 62.26 357.74 5.33 131.08 17.88 324.58-.32 451.35-14.52 101.18-86.79 84.42-164.28 69.25-38.43-7.52-135.49-26.96-164.57-47.43-7.31-5.15-49.61-47.07-54.02-53.98-23.25-36.43-19.53-95.32-21.2-136.79Zm-399.45-20.56c-1.36 19.61 29.98 29.81 45.3 36.7 24.83 11.16 117.63 44.63 140.65 43.55 26.33-1.24 49.45-37.87 65.94-54.35 13.21-13.2 52.41-56.81 65.8-62.17 33.21-13.3 79.25 20.16 114.31 20.28 14.53 38.37 4.41 137.95 28.12 157.88 1.73 1.45 24.88 13.11 27.88 14.12-.02 6.98 1.35 14.53 6.1 19.89 11.46 12.92 170.72 49.15 196.39 51.63 90.43 8.73 69.58-33.88 73.35-101.68 5.78-104.12 7.17-211.29 4.36-316.03-2.05-76.49-10.65-343.53-52.2-395.78-7.32-9.21-18.14-12.04-19.99-14.03-52.44-56.34-86.92-68.83-163.17-86.83-48.26-11.39-150.3-33.11-188.9.75-51.83 45.46-126.08 165.14-165.59 226.41-66.76 103.54-149.12 235.63-195.04 348.96-19.85 48.97-43.63 82.05 16.7 110.7Z" fill="#492351" data-color="2"/>
        <path d="M4194.8 1700.39c-18.44 2.24-68.97-6.11-81.91 3.28-7.49 5.43-42.76 82.64-53 99-19.35 30.9-31.13 52.02-71.13 56.87-43.25 5.24-160.09.57-199.71-15.41-13.44-5.42-46.77-37.9-58.02-49.98-44.66-47.93-10.09-169.82 2.12-230.22 27.33-135.25 67.19-280.99 112.97-411.03 14.97-42.54 45.82-134.65 73.69-166.31 47.77-54.25 240.65-60.28 308.85-50.07 125.96 18.87 171.57 128.1 213.54 234.46 48.31 122.41 88.84 257.08 123.86 384.14 14.92 54.14 51.48 164.08 53.39 214.83 2.23 59.18-35.87 79.84-87.44 88.85-24.77 4.33-57.63 8.06-82.66 9.34-31.09 1.6-125.85 4.2-150.16-6.17-12.42-5.29-66.25-61.34-73.76-74.24-14.52-24.95-22.38-59.63-30.64-87.35Zm-407.61 75.59c-2.94 22.44 17.15 30.26 35.11 34.89 28.8 7.43 137.85 13.89 165.17 7.39 44.55-10.61 70.21-132.87 104.06-151.94 16.54-9.32 101.07-8.61 123.66-6.34 5.44.55 6.07-.42 9.2 4.92 20.46 34.95 21.62 122 70.8 127.08.07 14.1 13.27 32.1 26.86 35.14 21.19 4.75 82.5 2.09 107.31 1.02 30.44-1.31 97.88-5.57 124-16 17.24-6.88 25.36-14.02 25.99-34.3 1.09-34.97-34.3-146.03-45.3-186.73-27.7-102.51-59.77-209.04-94.79-309.21-28.72-82.17-60.94-186.77-120.08-249.92-8.71-9.3-21.52-25.22-30-32-54.64-43.67-242.67-27.48-307.09-3.1-10.31 3.9-25.74 10.71-32.76 19.24-12.57 15.29-32.84 66.24-41.15 86.85-55.1 136.72-101.61 307.59-131.76 452.24-8.39 40.27-36.64 168.25-23.14 200.67 4.89 11.75 22.5 17.41 33.91 20.09Z" fill="#492351" data-color="2"/>
        <path d="M2215.24 1543.99c-9.3 41.13-31.29 66.49-74.48 71.56-43.15 5.07-209.78-22.81-249.63-41.52-9.54-4.48-50.19-44.39-58.02-53.98-28.54-34.9-17.48-113.96-13.9-158.06 14.2-175.06 47.56-405.96 93.15-574.85 9.56-35.42 20.53-87.33 57.86-102.14 119.92-47.59 343.82-2.48 451.09 66.86 169.78 109.76 261.56 292.23 169.4 489.63-7.9 16.92-51.32 68.23-51.71 72.69-.84 9.44 55.72 84.1 64.93 103.07 19.81 40.77 26.6 67.14 2.55 108.01-21.27 36.13-121.52 126.48-159.66 144.34-86.97 40.74-167.47-86.59-231.57-125.61Zm-324.05-36.01c-.04 25.49 16.72 27.77 36.03 33.97 45.84 14.73 146.66 34.18 193.96 34.26 72.18.13 44.76-68.59 71.06-81.42 18.33-8.94 33.42 12.7 50.96 13.18 26.22 21.83 65.5 65.46 92 80 8.23 19.87 50.24 45.88 70.48 47.81 28.33 2.71 87.83-49.52 109.57-69.76 41.62-38.75 81.12-69.28 52.68-128.79-20.65-43.21-59.21-86.4-88.87-123.69-1.69-12.58 32.71-30.94 44.01-43.7 73.28-82.8 78.94-254.87 18.64-346.39-10.09-15.32-22.51-22.36-30.52-31.48-88.66-101.13-163.12-151.06-299.26-174.74-43.23-7.52-204.29-18.32-234.64 10.84-21.36 20.53-49.66 181.07-56.85 219.15-27.74 147.06-59.79 330.37-65.21 478.79-1.52 41.57-8.04 67.49 35.96 81.96Z" fill="#492351" data-color="2"/>
        <path d="M8239.2 651.94c40.46 11.18 79.83 30.87 112.04 58 405.18 341.35-219.97 846.03-560.15 448.15-57.93-67.75-51.48-123.05 16.03-180.11-15.59-12.07-33.32-22.74-48.02-35.9-304.77-272.82 30.11-695.84 368.05-568.05 46.84 17.71 139.46 95.06 160.22 139.78 26.39 56.86-11.01 100.19-48.16 138.12Zm-452.01 256.04c30.31 27.12 72.45 58.45 116 60-41.95 24.93-129.82 63.18-107.13 125.16 9.83 26.86 56.69 71.06 79.13 90.84 273.46 241.02 750.56-115.6 496-396-66.33-73.07-138.49-110.55-240-112 37.63-26.41 136.99-80.86 122.14-136.1-4.79-17.8-22.8-31.31-34.14-43.9-72.98-80.98-149.21-116.36-260.91-98.91-257.25 40.18-379.59 324.38-171.09 510.91" fill="#492351" data-color="2"/>
        <path d="M6094.37 805.16c383.59-19.92 663.31 395.63 450.49 730.49-183.1 288.08-555.43 271.57-769.56 26.23-250.98-287.56-61.9-736.94 319.07-756.72m-211.18 798.82c250.96 217.84 651.52 71.06 687.94-266.06 13.62-126.07-15.19-225.4-95.94-317.94-116.59-133.6-222.51-185.5-405.95-171.95-267.04 19.73-437.42 323.21-338.77 566.67 33.88 83.62 86.88 132.13 152.72 189.28" fill="#492351" data-color="2"/>
        <path d="M7110.37 617.16c374.51-24.12 646.41 380.46 457.51 713.51-150.09 264.62-498.33 301.64-720.74 103.37-319.31-284.65-166.16-789.22 263.23-816.88m-219.18 794.82c294.82 258.53 744.83 21.26 691.54-377.54-12.06-90.25-45.06-148.68-99.54-210.46-114.17-129.49-216.23-177.09-393.95-163.95-288.45 21.33-460.12 349.88-328.13 604.03 32.95 63.45 77.94 102.19 130.08 147.92" fill="#492351" data-color="2"/>
        <path d="M5403.19 2435.98c-13.9-.5-26.62-.28-39.97 4.02l-31.96-326.1c-8.17-34.98 24.23-24.55 47.95-25.9l-4.04-52.01 348.01-32.03c.9 14.86 3.37 29.05 4.01 44.03.11 2.66-.2 5.34-.02 7.99l44.02-3.99c.49.49 6.97-1.77 8.09 2.63 2.81 11.03-2.05 21.27 3.91 37.37.87 2.36-2.49 7.08 2.37 8.23 11.25 2.66 25.86-5.37 37.63-4.23.56.59 6.28-2 7.9 2.87 2.99 9 3.05 26.84 4.1 37.13 10.37 101.11 14.59 203.17 28.02 303.97l-48.04 4.01.04 52.04c-101.59 5.22-202.76 20.01-304.02 27.98-15.88 1.25-25.57 3.62-40 0l-4.03-48.01c-4.7-1.46-9.46 3.72-11.97 4.01-11.26 1.3-30.54 3.23-40 0v-44.02c-3.97-.17-8 .17-12 .02Zm276.02-376.01-248.04 20 4.02 52-47.57 4.44 20.25 240.88c5.09 15.25 38.34-2.02 51.33 2.68 1.45 12.56-5.36 39.51 7.95 46.02l240.05-17.98-.04-52.04 48.05-3.97-21.1-237.12c-.45-24.95-43.1-.83-50.62-7.22l-4.29-47.69Z" fill="#ac4dbf" data-color="1"/>
        <path d="M4367.19 2523.98c-14.57-.71-29.44.51-44.02.02l-8-448.04 352.04-4c-.21 13.29.25 26.73-.02 40.02 0 .46-4.54 2.87-3.84 5.54 2.47 9.39 40.91 9.39 47.84 2.46 6.74 16.97 1.82 24.85 4 40 3.38 23.48 27.54 3.68 44 8 .5.5 6.91-1.79 8.07 2.64 2.13 8.14-.38 26.86-.07 37.36.12 4-.18 8.02-.02 12.01h44.02c4.59 16.71 3.24 23.34 4 39.99.99 21.81 3.53 45.18 4.16 65.84 1.45 47.28-1.43 94.92-.14 142.19l-48.04-.04.04 48.04c-8.18-.45-43.8-.04-47.58 4.4-3.03 3.56 1.28 38.99-.42 47.6-101.43-2.96-202.63 5.82-304.02 3.98-11.18-.2-32.83 2.32-41.35.07-4.44-1.17-2.14-7.57-2.65-8.07v-40.03c-2.65-.19-5.34.15-8 .03Zm248.03-400.02-248.04 4.01 7.77 346.27 244.27-2.23c-3.62-54.42-2.37-55.61 52-52l-.04-48.04c10.4-1.65 40.85 4.06 46.27-3.73 7.68-11.03-1.74-119.77 1.19-141.7-4.07-12.42-40.14-4.37-51.46-6.54l.04-48.04c-49.92 2.28-56.82 5.76-52-48" fill="#ac4dbf" data-color="1"/>
        <path d="M3151.19 2167.98c-12.41-.91-28.92-7.63-44.02-3.98l12.04-152.03 396 36c-.79 11.77 1.08 24.38-.02 36.01-.34 3.58-6.25 9.88-3.99 15.98l47.99 4.02c.23 11.7.75 24.41 0 36-.04.61-3.81 4.52-4.18 9.67-2.47 34.15-3.03 68.43-7.85 102.33-32.92-5.38-66.64-8.53-99.99-8.02L3423.21 2536l-152.02-8.02c-49.12-5.77-56.57-1.4-44.01-55.97-7.17 1.03-46.72-1.39-48.22-6.33 3.8-73.42 14.65-146.53 20.19-219.73 1.05-13.9-.84-28.11.04-41.97.5-7.88 8.11-23.87 4.02-36.02-17.17-.88-34.9 1.27-52.02.02m308.02-76.02-296.04-24-4.01 48.01 100.04 8-24.04 300.03 95.98 7.94 24.6-289.4 3.19-4.81 100.27 2.28v-48.04Z" fill="#ac4dbf" data-color="1"/>
        <path d="M2347.19 1983.98c-.31 2.34-5.19 9.3-6.19 15.68-9.99 63.43-24.49 166.68-42.95 225.19-8.24 26.11-18.22 28.69-44.35 26.68-57.47-4.43-159.71-29.42-218.51-43.54-22.36-5.37-44.61-2.79-47.3-33.9 20.21-79.62 26.78-168.98 47.74-247.65 6.41-24.04 15.21-32.01 41.01-30.04 78.34 5.98 170.76 40.79 250.66 49.49 13.32 4.76 21.67 24.8 19.9 38.1Z" fill="#ac4dbf" data-color="1"/>
        <path d="M6883.19 1919.98c13.5 58.35 34.92 164.68 39.46 222.5 2.28 29 0 37.89-28.85 46.11-65.17 18.58-166.34 35.07-234.61 47.39-24.43 4.41-37.63-8.69-43.77-30.24-16.03-56.25-38.36-174.14-43.72-232.23-2.23-24.17-3.53-39.68 22.56-48.47 37.17-12.52 208.24-44.33 246.85-45.28 30.45-.75 35.72 12.68 42.08 40.22" fill="#ac4dbf" data-color="1"/>
        <path d="M5015.19 2507.98c-18.04-.88-48.05 8.61-47.58-14.31l-20.44-433.71 200.04-8c.45 13.26-.66 26.78-.02 40.02.13 2.66-.21 5.35-.03 7.99h44.03c.5.51 6.91-1.78 8.07 2.65 2.26 8.62-.75 26.48-.07 37.36 6.86 110.24 11.48 219.95 16.04 329.96.97 23.31 7.44 49.25 3.92 74-47.13 5.72-94.93 4.71-142.28 7.87-5.14.34-9.15 4.14-9.68 4.16-9.62.48-34.16 1.97-41.35.07-4.45-1.18-2.15-7.57-2.65-8.07v-40.03c-2.65-.19-5.34.16-8 .03Zm84.02-404.01-100.04 4 16.01 338.03c2.81 15.23 43.45 11 58.17 10.16 13.89-.79 27.33-6.56 41.86-4.15l-16.01-348.04Z" fill="#ac4dbf" data-color="1"/>
        <path d="m4187.19 2167.98 44.02-.02-12 396.04c-10.05 2.12-41.36-3.28-47.45.54-6.39 4-4.31 38.54-4.55 47.46-116.16-2.08-231.96-6.7-348.04-12l.02-40.02c101.16 6.08 202.48 7.79 304.02 12.02l-.04-48.04 48.04.04c6.42-41.77 2.44-83.88 4.03-125.98 2.86-75.98 10.27-155.06 11.96-230.04Z" fill="#492351" data-color="2"/>
        <path d="M5835.19 2135.98c10.47 1.75 39.55-5.35 43.44 6.56l28.58 341.46c-16.05.16-32.55-2.09-47.7 4.34l3.63 47.59L5515.2 2568l-4.01-44.02c101.26-7.97 202.43-22.76 304.02-27.98l-.04-52.04 48.04-4.01c-13.43-100.8-17.66-202.86-28.02-303.97" fill="#492351" data-color="2"/>
        <path d="m6455.19 2043.98 39.98-3.99c-.72 41.89 60.73 328.74 51.46 343.44-3.02 4.79-40.16 5.52-43.02 8.93-5.78 6.89 9.34 37.61 1.85 47.91l-341.97 55.38-4.31-43.67c5.36-.82 14.82-5.35 23.28-6.72 93.58-15.06 187.16-30.47 280.73-45.31l-7.93-47.81 48.04-10.35c-17.25-99.05-31.55-198.68-48.12-297.81Z" fill="#492351" data-color="2"/>
        <path d="m2979.19 2131.98 47.68 8.36-51.85 343.45c-50.41-6.35-53.95-10.08-55.86 44.19l-344-51.99.02-36.01c95.31 14.7 190.9 28.25 286.03 44.34 20.39 1.16 14.67-32.69 17.99-48.34l48.23 6.33c17.97-103.35 32.19-207.6 51.74-310.33Z" fill="#492351" data-color="2"/>
        <path d="M4815.19 2259.98c12.46 4.63 42.74-11.67 47.4 2.61l4.61 245.41c-82.9-13.38-40.31 35.28-49.71 48.11-5.98 8.16-39.12 2.05-50.33 3.86l.04 48.04-348.04 4 .02-40.02c101.39 1.84 202.6-6.94 304.02-3.98 1.69-8.61-2.61-44.04.42-47.6 3.78-4.44 39.4-4.85 47.58-4.4l-.04-48.04 48.04.04c-1.29-47.26 1.59-94.9.14-142.19-.63-20.65-3.17-44.03-4.16-65.84Z" fill="#492351" data-color="2"/>
        <path d="M3559.19 2139.98c10.93 1.91 43.63-5.54 47.61 6.59L3595.21 2292l-99.59-7.56-28.73 295.21-193.09-16.27c-12.28-3.76 1.14-24.3-2.6-35.4l152.02 8.02 23.96-292.04c33.35-.52 67.07 2.64 99.99 8.02 4.82-33.9 5.38-68.18 7.85-102.33.37-5.15 4.14-9.06 4.18-9.67Z" fill="#492351" data-color="2"/>
        <path d="m5199.19 2139.98 44.02-.02 23.41 441.48-9.42 6.55-190.03 8.01.02-40.02c.54-.03 4.54-3.82 9.68-4.16 47.36-3.16 95.15-2.16 142.28-7.87 3.52-24.76-2.96-50.69-3.92-74-4.56-110-9.18-219.72-16.04-329.96Z" fill="#492351" data-color="2"/>
        <path d="M6883.19 1919.98c27.48-2.09 34.31 3.05 42.06 27.94 22.87 73.46 24.36 167.12 45.58 242.7 2.56 19.95-6.91 31.84-24.96 38.05-72.84 25.04-176.76 24.59-252.82 47.41-23.35-1.76-34.67-16.94-33.87-40.1 68.27-12.32 169.44-28.81 234.61-47.39 28.85-8.22 31.13-17.11 28.85-46.11-4.54-57.82-25.96-164.15-39.46-222.5Z" fill="#492351" data-color="2"/>
        <path d="M2035.19 2207.98c58.8 14.11 161.04 39.1 218.51 43.54 26.13 2.02 36.12-.57 44.35-26.68 18.45-58.5 32.95-161.75 42.95-225.19 1.01-6.38 5.88-13.34 6.19-15.68 29.45-1.9 45.37 7.34 44.21 38.07-1.8 47.85-32.3 188.54-46.16 237.98-6.42 22.89-7.94 31.64-35.31 34.63-78.96-21.56-173.64-25.82-250.96-48.46-20.98-6.14-26.46-16.79-23.78-38.22Z" fill="#492351" data-color="2"/>
        <path d="M3151.19 2167.98c17.12 1.25 34.85-.9 52.02-.02 4.09 12.15-3.52 28.14-4.02 36.02l-48.02.02z" fill="#492351" data-color="2"/>
        <path d="m2895.19 2019.98 48.03 4.01c3.7 7.59-3.73 16.8-4.03 19.99-9.52-1.32-38.01-1.94-44.15-5.85-8.66-5.51-.59-13.46.15-18.15" fill="#492351" data-color="2"/>
        <path d="m2939.19 2075.98 47.72 8.28c4.03 6.04-3.4 13.37-3.72 15.72l-48.02-4.01c-3.71-7.59 3.72-16.79 4.02-19.99" fill="#492351" data-color="2"/>
        <path d="M3515.19 2083.98c7.59 3.21 42.41 2.47 44.03 3.98.59.55-.1 12.33-.03 16.02l-47.99-4.02c-2.26-6.1 3.65-12.4 3.99-15.98" fill="#492351" data-color="2"/>
        <path d="M6043.19 2371.98c1.31-.15 6.34-6.49 11.97-4l8.03 48c-22.93.22-18.65-26.2-20-44" fill="#492351" data-color="2"/>
        <path d="M6119.19 2455.98c-3.28-.05-9.69 1.2-11.45-.46-3.88-3.65-4.27-35.56-8.55-43.54 1.19-.07 8.48-9.26 14.15-.13z" fill="#492351" data-color="2"/>
        <path d="M3891.19 2103.98c7.53 3.01 42.24 2.72 44.03 4.01.71.51-.47 6.28-.03 7.99-5.82 5.82-33.19 5.97-41.37 3.38-12.1-3.82-2.72-12.02-2.63-15.38" fill="#492351" data-color="2"/>
        <path d="M4139.19 2115.98c7.97 1.46 40.97-2.21 43.82.29 1.56 1.37-.56 9.02.18 11.71-10.44-1.56-44.85 4.9-47.84-6.46-.7-2.67 3.83-5.08 3.84-5.54" fill="#492351" data-color="2"/>
        <path d="M4667.19 2111.98c12.1 1.92 30.79-2.74 41.49-.17 4.93 1.18 1.7 6.15 2.51 8.17-6.92 6.93-45.37 6.93-47.84-2.46-.7-2.67 3.83-5.08 3.84-5.54" fill="#733380" data-color="3"/>
        <path d="M5455.19 2479.98c2.51-.29 7.28-5.47 11.97-4.01l4.03 48.01c-2.94-.74-10.33 1.37-11.7-.19-2.21-2.51 2.02-35.42-4.3-43.81" fill="#733380" data-color="3"/>
        <path d="M4767.19 2207.98c7.97 1.46 40.97-2.21 43.82.29 1.56 1.37-.56 9.02.18 11.71h-44.02c-.16-3.98.14-8 .02-12" fill="#733380" data-color="3"/>
        <path d="M4715.19 2159.98c11.97 1.94 30.87-2.84 41.35-.07 4.44 1.17 2.14 7.57 2.65 8.07-16.46-4.32-40.62 15.48-44-8" fill="#492351" data-color="2"/>
        <path d="M5403.19 2435.98c4 .14 8.03-.2 12.01-.02v44.02c-1.77-.6-6.45 1.31-7.6-.25-1.31-1.76-1.85-36.37-4.4-43.75Z" fill="#492351" data-color="2"/>
        <path d="M5727.19 2047.98c12.46-1.42 25.49-6.07 38.27-4.36 9.3 1.25 4.71 7.32 5.73 8.36l-44.02 3.99c-.18-2.65.13-5.33.02-7.99" fill="#733380" data-color="3"/>
        <path d="M5147.19 2091.98c11.97 1.94 30.87-2.84 41.35-.07 4.44 1.17 2.14 7.57 2.65 8.07h-44.03c-.19-2.65.16-5.34.03-8" fill="#733380" data-color="3"/>
        <path d="M5015.19 2507.98c2.66.13 5.35-.21 7.99-.03v40.03c-.49-.5-6.9 1.79-8.06-2.64-2.53-9.65 1.82-26.4.07-37.36" fill="#492351" data-color="2"/>
        <path d="M4367.19 2523.98c2.66.13 5.35-.21 7.99-.03v40.03c-.49-.5-6.9 1.79-8.06-2.64-2.53-9.65 1.82-26.4.07-37.36" fill="#733380" data-color="3"/>
        <path d="M5783.19 2091.98c10.76 4.23 30.53-5.45 37.45-4.29 4.33.73 2.02 7.73 2.55 8.29-11.77-1.14-26.39 6.89-37.63 4.23-4.86-1.15-1.49-5.87-2.37-8.23" fill="#733380" data-color="3"/>
        <path d="M3775.19 2547.98c-3.46-12.61-5.94-21.68-4-36 8.2 2.54 2.38 28.04 4 36" fill="#733380" data-color="3"/>
        <path d="M3723.19 2495.98c-1.6-10.96 1.11-24.58 0-36 6.41 2.16 6.75 29.85 0 36" fill="#733380" data-color="3"/>
        <path d="m6295.19 1975.96 7.84 46.38 48.15-6.38 8.03 47.97-99.93 15.97c-1.43-8.18-4.43-47.3-10.59-48.18-25.54 10.62-122.26 12.07-139.18 23.81-8.61 5.97 12.35 81.5 9.72 96.41l199.97-27.98 7.82 46.39 48.15-6.38 14.37 96.18-46.38 7.83 3.6 51.63L6103.2 2360c-1.17-7.92-4.78-45.08-8.55-47.48-18.69-11.88-59.03 35.6-55.39-44.44 18.86 2.41 81.18-18.79 93.64-15.62 8.45 2.15 10.53 38.11 10.26 47.56l148.04-20.03-15.61-97.71-196.39 29.73c-1.12-7.84-4.91-45.26-8.49-47.56-7.93-5.08-41.61 11.74-49.78-.23-2.61-3.83-15.81-87.87-13.31-91.77 2.27-3.54 39.7-7.41 47.57-8.48l-8.05-47.94 248.02-40.07Z" fill="#ffffff" data-color="4"/>
        <path d="M2843.18 2028.01c-11.7 50-13.97 54.31 40.04 55.97l-4.01 48.03c-12.62.21-96.36-8.55-99.83-12.19-4.35-4.56 7.6-42.12 3.83-51.84l-141.46-20.32c-7.55 1.41-14.69 84.7-18.6 98.28l196.07 30.05-4.03 52 43.97 4.04c3.59 3.47-10.32 94.31-15.76 98.33-6.22 4.61-38.3-7.32-48.18-6.38l-6.25 48.09-238.11-37.79c-15.36-7.79 3.86-39.3-1.35-46.42-4.67-6.39-42.88-4.66-46.12-8.05-4.4-4.6 6.94-38.54 3.8-47.84l99.92 12.11-3.92 51.91 141.68 20.26c4.74-.64 18.99-89.32 17.86-93.97-2.89-11.85-188.79-27.03-195.2-34.6-3.7-4.38 7.92-41.85 3.69-51.71l-48.02-4.01 16-99.99 48.13 6.34 7.86-46.35z" fill="#ffffff" data-color="4"/>
        <path d="m3839.21 2115.96-12.04 295.99c37.3 7.61 75.99 2.74 113.98 4.06 12.79.44 34.39 12.97 38.05-6.03l7.97-290.03 100.04 4-8.63 293.4c-4.16 12.87-38.21-2.32-51.41 2.61-1.79 10.76 4.2 44.67-3.71 50.31l-244.29-6.27.04-52.04-48.04.04 8-300.04z" fill="#ffffff" data-color="4"/>
        <path d="M5435.19 1047.98c7.8 29.83 42.99 113.48 22.79 138.84-30.77 38.63-158.75 55.63-206.79 61.16-8.99 1.03-18.72-4.56-24-4-12.51-41.59-31.47-34.4-68.91-26.91-112.91 22.59-170.13 147.31-79.09 230.91 32.18 29.56 93.31 49.07 134.83 28.83 36.34-17.72 10.89-83.85 35.01-108.99 29.45-30.7 149.99-48.88 192.35-48.03 33.13.66 70.27 3.75 77.81 40.19 17.53 84.81 28.51 256.65 19.94 341.94-1.33 13.28-3.08 25.81-14.48 33.52-25.12 16.99-146.34 19.52-179.59 16.66-10.71-.92-17.43-8.16-27.38-7.94-29.22.67-80.4 21.08-116.55 23.76-111.06 8.24-213.19-9.59-305.95-71.95-148.39-130.02-189.8-254.12-133.06-451.06 78.4-272.09 474.53-417.18 673.06-196.94Z" fill="#ac4dbf" data-color="1"/>
        <path d="M5519.19 1359.98c11.6 2.62 25.96 7.57 30.19 19.81 9.41 27.18 14.68 94.69 17.79 126.21 6.61 66.96 13.31 153.74 8.16 220.13-.99 12.73-3.61 38.58-14.89 45.11-26.13 15.12-142.32 19.24-175.28 16.78-12.69-.95-22.38-8.53-35.79-8.18-32.92.86-84.53 21.36-124.22 24.11-135.24 9.35-234.76-24.55-329.96-107.96 92.76 62.36 194.88 80.19 305.95 71.95 36.15-2.68 87.33-23.09 116.55-23.76 9.95-.23 16.67 7.02 27.38 7.94 33.25 2.86 154.47.32 179.59-16.66 11.4-7.71 13.15-20.24 14.48-33.52 8.57-85.3-2.41-257.13-19.94-341.94Z" fill="#733380" data-color="3"/>
        <path d="M5251.19 1247.98c48.04-5.53 176.02-22.52 206.79-61.16 20.2-25.37-15-109.01-22.79-138.84 23.66 26.25 37.37 41.51 49.13 76.87 8.34 25.06 23.05 79.39 5.05 99.31-28.06 31.05-189.4 70.19-225.28 52.92-11.33-5.46-9.5-18.55-12.9-29.09Z" fill="#733380" data-color="3"/>
        <path d="M5227.19 1243.98c-19.75 2.1-63.22 15.34-81.43 24.57-70.33 35.65-87.79 106.77-66.57 179.43-91.04-83.6-33.82-208.32 79.09-230.91 37.43-7.49 56.4-14.68 68.91 26.91" fill="#733380" data-color="3"/>
        <path d="M2795.19 1675.98c-31.67-11.27-36.59-31.61-39.48-62.52-13.29-141.98 18.55-377.61 40.06-522.91 4.31-29.1 30.06-191.84 43.44-204.56 4.51-4.29 20.22-7.88 27.01-8.99 61.65-10.1 195.2 4.98 250.27 35.68 61.94 34.53 110.29 147.74 146.79 207.26l7.95-1.98c7.19-46.27 1.49-106.77 12.95-151.02 1.66-6.41 6.38-16.34 11.24-20.76 30.08-27.34 155.84-19.39 196.62-13.05 24.97 3.88 110.55 21.04 107.17 54.83-19.05 190.51-30.05 382.74-60.67 573.33-6.25 38.91-19.09 143.48-34.4 173.6-2.47 4.85-4.96 7.68-9.93 10.07-35.33 17-181.85.6-219-17-40.51-19.19-141.68-171.44-172-216-9.21-13.53-16.96-30.43-26.85-42.94-2.54-3.21.14-7.35-9.13-5.07-8.95 37.75-34.99 211.02-62.77 227.26-12.9 7.54-80.55 6.04-99.2 4.7-24.89-1.79-87.47-11.91-110.05-19.95Z" fill="#ac4dbf" data-color="1"/>
        <path d="M3275.19 1727.98c37.15 17.6 183.67 34 219 17 4.97-2.39 7.46-5.22 9.93-10.07 15.31-30.12 28.15-134.69 34.4-173.6 30.61-190.59 41.62-382.82 60.67-573.33 11.91 3.53 29.34 12.51 31.91 26.09-4.39 172.66-23.61 348.49-48.48 519.34-5.13 35.22-32.89 228.22-49.21 242.79-20.56 18.35-125.43 7.18-155.05 2.62-35.49-5.45-87.82-14.36-103.16-50.84Z" fill="#733380" data-color="3"/>
        <path d="M2795.19 1675.98c22.58 8.04 85.16 18.16 110.05 19.95 18.65 1.34 86.3 2.84 99.2-4.7 27.79-16.24 53.82-189.51 62.77-227.26 9.26-2.28 6.59 1.86 9.13 5.07 9.89 12.51 17.64 29.41 26.85 42.94-20.36 56.21-23.49 118.74-42.87 175.13-4.14 12.04-10.33 32.38-21.43 38.57-32.26 17.99-210.15-3.46-235.82-31.61-4.66-5.11-7.06-11.31-7.89-18.1Z" fill="#733380" data-color="3"/>
        <path d="M915.19 379.98c-14.76 92.41-46.55 186.02-81 273-32.92 83.11-106.53 250.86-173.12 306.88-122.39 102.98-335.56 32.63-457.88-39.88C33.13 778.24-9.05 691.03 98.48 477.27c29.49-58.62 42.44-83.37 114.65-77.22 83.54 7.11 133.97 47.43 186.07 103.94-3.55 40.56-35.13 79.26-48.75 117.25-11.36 31.67-10.04 47.23 17.14 68.54 3.62 2.84 10.05 1.31 11.62 2.21.44.26-2.42 5.32 5.4 8.7 32.37 13.98 52.25-13.83 68.25-37.05 69.24-100.45 96.05-226.18 145.65-334.35 20.74-45.22 29.74-67.56 86.6-65.3 90.32 3.59 171.44 52.39 230.09 115.99Z" fill="#ac4dbf" data-color="1"/>
        <path d="M203.19 919.98c122.32 72.51 335.49 142.87 457.88 39.88 66.59-56.03 140.2-223.78 173.12-306.88 34.45-86.98 66.24-180.59 81-273 .68.73 8.1 1.31 12.2 5.63 4.51 4.75 14.58 17.94 16.68 23.49 11.49 30.33-20.91 123.57-31.81 157.95-35.15 110.79-134.83 365.96-225.41 434.59-136.25 103.23-369.89 13.17-483.65-81.65Z" fill="#733380" data-color="3"/>
        <path d="M379.19 691.98c-1.56-.9-8 .63-11.62-2.21-27.18-21.31-28.5-36.87-17.14-68.54 13.63-37.99 45.2-76.69 48.75-117.25.68.74 7.05.78 9.95 3.89 8.44 9.05 21.31 19.51 24.37 32.13 6.91 28.48-62.1 114.27-54.32 151.99Z" fill="#733380" data-color="3"/>
        <path d="M8915.19 79.98c17.62 28.46 56.94 119.67 59.13 151.24 1.74 25.19-25.64 38.21-44.44 49.44-50.06 29.9-107.43 53.13-158.56 81.57-.81 3.62 10.03 24.47 14.27 25.45 3.46.8 56.03-21.25 66.55-24.74 11.62-3.86 26.4-4.06 35.05-6.95 14.76 19.62 35.16 35.64 48 56 11.09 17.59 42.57 82.7 39.36 101.05-4.88 27.85-85.05 49.26-93.66 62.92-4.02 6.38 6.46 20.18 6.47 27.91 8.07 5.78 104.04-48.49 119.83-55.88 24.9-11.65 90.44-45.8 114.07-44.35 14.84.91 41.6 35.32 49.93 48.35 13.79 21.56 34.45 65.01 44.69 89.31 6.29 14.91 24.54 58.97 23.22 72.54-2.22 22.87-83.52 69.87-105.23 82.84-91.56 54.71-216.23 115.79-316.62 151.38-27.63 9.79-56.35 22.21-86.07 19.93-84.08-83.83-146.4-220.92-199.43-330.57-43.53-89.99-101.92-206.63-131.6-300.4-7.91-25-22.21-62.07-.79-82.86 15.7-15.24 66.03-40.41 87.74-52.26 91.21-49.79 257.9-132.77 356.05-155.95 42.56-10.05 49.06-3.07 72.03 34.04Z" fill="#ac4dbf" data-color="1"/>
        <path d="M8731.19 967.98c29.72 2.28 58.45-10.13 86.07-19.93 100.39-35.59 225.06-96.68 316.62-151.38 21.71-12.97 103.01-59.97 105.23-82.84 1.32-13.57-16.94-57.63-23.22-72.54-10.25-24.3-30.9-67.75-44.69-89.31 13.5 1.64 18.99 14.7 25.65 24.34 22.02 31.88 78.42 138.25 74.64 173.78-2.09 19.68-43.62 44.32-60.64 55.54-72.05 47.55-162.04 91.47-240.96 127.04-38.51 17.36-169.97 77.89-204.59 71.23-9.12-1.75-21.21-16.9-28.4-23.85-4.36-4.21-4.94-11.32-5.72-12.09Z" fill="#733380" data-color="3"/>
        <path d="M8887.19 355.98c-8.65 2.9-23.44 3.09-35.05 6.95-10.52 3.5-63.09 25.54-66.55 24.74-4.24-.98-15.08-21.82-14.27-25.45 51.13-28.44 108.5-51.66 158.56-81.57 18.8-11.23 46.19-24.25 44.44-49.44-2.19-31.58-41.51-122.79-59.13-151.24 10.88 1.14 17.44 10.75 23.3 18.7 18.85 25.56 74.83 147.15 71.57 174.85-1.18 9.98-14.12 19.68-21.56 25.76-15.95 13.02-82.28 50.33-101.31 56.69Z" fill="#733380" data-color="3"/>
        <path d="M9007.19 547.98c-15.79 7.39-111.76 61.65-119.83 55.88-.01-7.73-10.49-21.53-6.47-27.91 8.61-13.66 88.78-35.08 93.66-62.92 3.21-18.35-28.27-83.46-39.36-101.05 8.94-.3 10.71 5.41 15.28 10.71 27.01 31.28 55.33 83.88 56.72 125.29" fill="#733380" data-color="3"/>
        <path d="M1579.19 615.98c10.15 46.98 19.03 94.06 23.98 142.02 17.55 170.09 20.98 388.81 12.19 560.14-.85 16.63-2.83 46.89-5.95 62.05-10.46 50.86-86.36 25.78-122.96 18.53-32.87-6.51-84.74-16.51-115.26-26.74-3-1.01-26.15-12.67-27.88-14.12-23.71-19.93-13.59-119.51-28.12-157.88-5.59-14.76-3.98-17.89-19.97-26.03-29.5-15.03-114.13-41.24-142.03-21.97-22.24 19.03-84.98 101.71-108.84 107.15-15.6 3.56-27.45-1.06-42-4.31-30.23-6.74-91.77-25.83-119.16-38.84-60.33-28.65-36.55-61.73-16.7-110.7 45.93-113.33 128.28-245.41 195.04-348.96 39.5-61.27 113.76-180.95 165.59-226.41 38.6-33.86 140.64-12.14 188.9-.75 76.26 18 110.73 30.48 163.17 86.83Zm-304 356c23.1 9.71 71.32 29.56 92.09 6.09 16.25-18.35-.3-78.82-8.09-102.09-4.64-13.86-12.16-39.86-30.03-39.72-23.26.17-89.47 79.66-90.3 101.84-.96 25.75 20.4 27.19 36.33 33.89Z" fill="#ac4dbf" data-color="1"/>
        <path d="M1371.19 1371.98c30.52 10.23 82.38 20.24 115.26 26.74 36.6 7.25 112.5 32.33 122.96-18.53 3.12-15.16 5.1-45.42 5.95-62.05 8.8-171.33 5.36-390.05-12.19-560.14-4.95-47.96-13.83-95.04-23.98-142.02 1.85 1.99 12.67 4.82 19.99 14.03 41.55 52.25 50.15 319.3 52.2 395.78 2.81 104.74 1.43 211.9-4.36 316.03-3.77 67.8 17.09 110.41-73.35 101.68-25.67-2.48-184.93-38.71-196.39-51.63-4.75-5.36-6.12-12.91-6.1-19.89Z" fill="#733380" data-color="3"/>
        <path d="M1315.19 1199.98c-35.06-.11-81.1-33.57-114.31-20.28-13.38 5.36-52.59 48.97-65.8 62.17-16.5 16.48-39.61 53.11-65.94 54.35-23.02 1.08-115.81-32.39-140.65-43.55-15.32-6.88-46.66-17.08-45.3-36.7 27.39 13.01 88.93 32.1 119.16 38.84 14.55 3.24 26.4 7.87 42 4.31 23.85-5.44 86.59-88.12 108.84-107.15 27.9-19.27 112.53 6.95 142.03 21.97 15.99 8.14 14.38 11.27 19.97 26.03Z" fill="#733380" data-color="3"/>
        <path d="m4319.19 1031.98 71 175c44.77 133.47 89.07 267.54 123.86 404.14 7.84 30.79 35.16 119.71 27.33 145.08-5.81 18.83-28.54 23.25-45.28 26.69-50.36 10.32-149.98 14.35-200.91 9.09-49.18-5.08-50.33-92.13-70.8-127.08-3.13-5.34-3.76-4.38-9.2-4.92.54-20.78-16.31-31.92-34.96-35.04-19.92-3.34-90.36-3.62-109.32.76-8.84 2.04-21.5 9.6-27.14 16.86-19.22 24.77-38.56 80.5-57.37 110.63-9.98 15.99-16.7 28.49-37.12 30.88-38.45 4.5-124.3.8-162.09-8.09-11.41-2.68-29.02-8.34-33.91-20.09-13.5-32.43 14.75-160.4 23.14-200.67 30.15-144.64 76.66-315.51 131.76-452.24 8.31-20.61 28.58-71.57 41.15-86.85 7.02-8.53 22.45-15.34 32.76-19.24 64.43-24.38 252.46-40.57 307.09 3.1 8.48 6.78 21.29 22.7 30 32Zm-216 408c27.24 3.35 101.42 5.74 100.25-33.8-.39-13.23-24.16-62.53-32.18-75.45-2.28-3.68-7.84-2.39-8.07-2.75-1.26-1.97.49-8.87-5.74-16.17-31.93-37.45-46.46-13.03-64.33 20.1-19.53 36.19-51.79 100.47 10.07 108.07" fill="#ac4dbf" data-color="1"/>
        <path d="M4295.19 1791.98c50.93 5.26 150.55 1.23 200.91-9.09 16.74-3.43 39.47-7.86 45.28-26.69 7.83-25.38-19.49-114.3-27.33-145.08-34.79-136.6-79.09-270.67-123.86-404.14l-71-175c59.13 63.16 91.35 167.75 120.08 249.92 35.02 100.17 67.08 206.7 94.79 309.21 11 40.7 46.38 151.75 45.3 186.73-.63 20.29-8.75 27.42-25.99 34.3-26.12 10.42-93.57 14.69-124 16-24.8 1.07-86.11 3.73-107.31-1.02-13.58-3.04-26.78-21.05-26.86-35.14Z" fill="#733380" data-color="3"/>
        <path d="M4215.19 1659.98c-22.59-2.28-107.12-2.99-123.66 6.34-33.85 19.08-59.5 141.34-104.06 151.94-27.32 6.5-136.37.05-165.17-7.39-17.95-4.63-38.05-12.45-35.11-34.89 37.79 8.89 123.64 12.59 162.09 8.09 20.42-2.39 27.14-14.9 37.12-30.88 18.81-30.13 38.15-85.86 57.37-110.63 5.64-7.26 18.3-14.82 27.14-16.86 18.96-4.38 89.4-4.1 109.32-.76 18.65 3.12 35.5 14.26 34.96 35.04" fill="#733380" data-color="3"/>
        <path d="M2511.19 891.98c60.02 112.95 53.41 306.31-67.98 376.07-2.69 4.04 48.1 67.92 55.24 78.66 14.77 22.21 52.28 76.55 48.04 102.26-5.01 30.36-136.09 150.89-165.84 153.87-9.45.95-36.24-9.8-45.47-14.87-26.5-14.54-65.78-58.17-92-80-18.91-15.75-61.02-59.77-88.06-46.05-16.43 8.33-5.86 69.79-46.89 77.1-40.95 7.3-174.46-17.04-217.04-31.05-44-14.47-37.48-40.39-35.96-81.96 5.42-148.42 37.48-331.73 65.21-478.79 7.18-38.08 35.48-198.62 56.85-219.15 30.35-29.16 191.41-18.36 234.64-10.84 136.14 23.68 210.6 73.6 299.26 174.74Zm-316 224c52.79 7.28 120.22-33.44 102.2-92.26-2.45-8.01-9.33-10.12-10.2-11.74s.91-7.73-2.04-11.78c-15.77-21.64-73.05-38.93-96.94-29.17-36.91 15.09-47.33 137.45 6.98 144.95" fill="#ac4dbf" data-color="1"/>
        <path d="M2511.19 891.98c8 9.13 20.42 16.17 30.52 31.48 60.3 91.51 54.64 263.59-18.64 346.39-11.3 12.77-45.69 31.12-44.01 43.7 29.66 37.29 68.22 80.48 88.87 123.69 28.44 59.51-11.06 90.04-52.68 128.79-21.74 20.24-81.24 72.46-109.57 69.76-20.24-1.93-62.25-27.94-70.48-47.81 9.23 5.06 36.02 15.81 45.47 14.87 29.75-2.98 160.83-123.52 165.84-153.87 4.24-25.72-33.27-80.05-48.04-102.26-7.14-10.74-57.94-74.62-55.24-78.66 121.39-69.76 128-263.12 67.98-376.07Z" fill="#733380" data-color="3"/>
        <path d="M2243.19 1507.98c-17.54-.47-32.63-22.12-50.96-13.18-26.3 12.83 1.12 81.54-71.06 81.42-47.29-.08-148.11-19.53-193.96-34.26-19.3-6.2-36.06-8.49-36.03-33.97 42.58 14.01 176.09 38.35 217.04 31.05 41.03-7.31 30.46-68.77 46.89-77.1 27.05-13.72 69.15 30.31 88.06 46.05Z" fill="#733380" data-color="3"/>
        <path d="M8219.19 495.98c8.56 42.09-20.76 71-50.12 95.88-20.31 17.21-100.02 68.18-123.86 68.35-27.15.2-26.09-38.44-63-31.49-17.16 3.23-57.95 40.58-46.51 58.75 3.62 5.75 42.36 5.05 51.49 4.5 21.39-1.29 47.76-10.04 68-12 22.16-2.14 53.95-4.32 76-4 101.51 1.45 173.67 38.93 240 112 12.7 33.86 31.62 65.5 35.51 102.49 21.73 206.85-196.58 351.8-385.66 337.66-53.57-4.01-96.86-25.97-145.85-44.15-22.44-19.78-69.29-63.98-79.13-90.84-22.69-61.98 65.18-100.23 107.13-125.16 23.52.83 65.52-20.14 97.99-19.17 15.34.46 31.05 10.58 42.01 11.17 13.85 37.02 59.78 27.25 80 0 .96-1.29 5.93-1.68 7.35-6.67 2.82-9.89-.91-23.32-9.76-28.91-29.24-18.48-179.07 15.06-227.74 11.74-38.05-2.6-70.4-16.8-105.85-28.16-208.51-186.54-86.16-470.73 171.09-510.91 111.7-17.45 187.94 17.93 260.91 98.91Z" fill="#ac4dbf" data-color="1"/>
        <path d="M7875.19 1183.98c48.98 18.18 92.27 40.15 145.85 44.15 189.08 14.14 407.39-130.81 385.66-337.66-3.89-36.99-22.81-68.63-35.51-102.49 254.56 280.4-222.54 637.02-496 396" fill="#733380" data-color="3"/>
        <path d="M8131.19 675.98c-22.05-.32-53.84 1.86-76 4-13.57-27.18-66.23-18.75-68 12-9.13.55-47.87 1.25-51.49-4.5-11.44-18.17 29.36-55.52 46.51-58.75 36.91-6.95 35.85 31.69 63 31.49 23.84-.17 103.56-51.14 123.86-68.35 29.36-24.88 58.68-53.79 50.12-95.88 11.34 12.59 29.35 26.1 34.14 43.9 14.85 55.24-84.51 109.69-122.14 136.1Z" fill="#733380" data-color="3"/>
        <path d="M8123.19 959.98c-23.16-12.37-58.3 1.19-80 0-10.96-.6-26.66-10.72-42.01-11.17-32.47-.96-74.47 20.01-97.99 19.17-43.55-1.55-85.69-32.88-116-60 35.44 11.36 67.79 25.56 105.85 28.16 48.68 3.32 198.5-30.22 227.74-11.74 8.86 5.6 12.59 19.03 9.76 28.91-1.43 4.99-6.39 5.38-7.35 6.67" fill="#733380" data-color="3"/>
        <path d="M6475.19 1019.98c119.63 194.31 68.34 459.62-123.47 586.53-139.39 92.22-328.4 83.19-468.53-2.53-65.84-57.15-118.84-105.66-152.72-189.28-98.65-243.46 71.73-546.94 338.77-566.67 183.43-13.56 289.36 38.35 405.95 171.95m-420 320c97.69 78.17 223.47-43.45 152-144-10.85-15.26-11.96-20.67-31.85-30.15-122.06-58.14-221.59 92.98-120.15 174.15" fill="#ac4dbf" data-color="1"/>
        <path d="M5883.19 1603.98c140.12 85.71 329.14 94.75 468.53 2.53 191.81-126.91 243.11-392.21 123.47-586.53 80.75 92.54 109.56 191.87 95.94 317.94-36.42 337.12-436.98 483.89-687.94 266.06" fill="#733380" data-color="3"/>
        <path d="M7483.19 823.98c100.73 160.22 91.84 372.83-32.11 517.89-139.2 162.91-383.08 185.04-559.89 70.11-52.14-45.73-97.13-84.47-130.08-147.92-131.98-254.15 39.69-582.7 328.13-604.03 177.72-13.14 279.78 34.46 393.95 163.95m-412 328c11.32 21.38 48.26 25.58 70.16 24.12 46.55-3.09 92.36-38.01 97.86-86.11 2.35-20.51 1.9-72.82-20.01-82.01-28.24-55.9-118.63-54.27-160.14-14.14-42.81 41.38-45.14 129.89 12.14 158.14Z" fill="#ac4dbf" data-color="1"/>
        <path d="M7483.19 823.98c54.48 61.79 87.47 120.21 99.54 210.46 53.3 398.8-396.71 636.07-691.54 377.54 176.82 114.93 420.69 92.81 559.89-70.11 123.95-145.07 132.84-357.67 32.11-517.89" fill="#733380" data-color="3"/>
        <path d="m5679.21 2059.97 4.29 47.69c7.52 6.38 50.17-17.74 50.62 7.22l21.1 237.12-48.05 3.97.04 52.04-240.05 17.98c-13.31-6.51-6.5-33.46-7.95-46.02-12.99-4.7-46.24 12.57-51.33-2.68l-20.25-240.88 47.57-4.44-4.02-52 248.04-20Zm-48.37 52.33-143.66 11.66 20.05 252.01 147.42-16.53z" fill="#ffffff" data-color="4"/>
        <path d="M4615.22 2123.96c-4.82 53.76 2.08 50.28 52 48l-.04 48.04c11.32 2.16 47.4-5.89 51.46 6.54-2.93 21.92 6.5 130.67-1.19 141.7-5.42 7.79-35.87 2.08-46.27 3.73l.04 48.04c-54.37-3.61-55.62-2.42-52 52l-244.27 2.23-7.77-346.27zm-48.03 48.02h-94c-3.31 0-7.07 9.7-6.2 13.8l4.2 238.2h94c9.8 0 5-43.02 5.98-52.02l48.02.02v-146c0-9.8-43.02-5-52.02-5.98z" fill="#ffffff" data-color="4"/>
        <path fill="#ffffff" d="m3459.21 2091.96.01 48.05-100.28-2.28-3.19 4.81-24.6 289.4-95.98-7.94 24.04-300.03-100.04-8 4.01-48.01z" data-color="4"/>
        <path d="m5099.21 2103.97 16.01 348.04c-14.53-2.41-27.97 3.35-41.86 4.15-14.73.84-55.36 5.07-58.17-10.16l-16.01-338.03 100.04-4Z" fill="#ffffff" data-color="4"/>
        <path d="M1359.19 875.98c7.79 23.26 24.34 83.74 8.09 102.09-20.77 23.47-69 3.63-92.09-6.09 10.92-31.28 40.13-67.39 65.85-88.16 5.95-4.8 9.02-9.4 18.15-7.84" fill="#492351" data-color="2"/>
        <path d="M1359.19 875.98c-9.13-1.56-12.2 3.04-18.15 7.84-25.72 20.77-54.93 56.88-65.85 88.16-15.93-6.7-37.29-8.14-36.33-33.89.83-22.17 67.04-101.66 90.3-101.84 17.87-.13 25.39 25.86 30.03 39.72Z" fill="#733380" data-color="3"/>
        <path d="M4163.19 1327.98c.23.36 5.79-.93 8.07 2.75 8.02 12.93 31.78 62.23 32.18 75.45 1.18 39.54-73.01 37.15-100.25 33.8 6.97-37.9 23.94-93.13 60-112" fill="#492351" data-color="2"/>
        <path d="M4163.19 1327.98c-36.06 18.87-53.03 74.1-60 112-61.86-7.6-29.6-71.88-10.07-108.07 17.87-33.13 32.4-57.55 64.33-20.1 6.22 7.3 4.47 14.2 5.74 16.17" fill="#733380" data-color="3"/>
        <path d="M2287.19 1011.98c.88 1.61 7.75 3.73 10.2 11.74 18.02 58.82-49.41 99.55-102.2 92.26-8.47-68.81 5.5-138.34 92-104m-28.01 32.03c-24.6-3.33-25.98 5.99-23.96 27.96 9.94 3.07 27.87-24.44 23.96-27.96" fill="#492351" data-color="2"/>
        <path d="M2287.19 1011.98c-86.5-34.34-100.47 35.19-92 104-54.31-7.49-43.89-129.86-6.98-144.95 23.89-9.77 81.16 7.53 96.94 29.17 2.95 4.05 1.16 10.16 2.04 11.78" fill="#733380" data-color="3"/>
        <path d="M8123.19 959.98c-20.22 27.25-66.15 37.02-80 0 21.7 1.19 56.84-12.37 80 0" fill="#492351" data-color="2"/>
        <path d="M8055.19 679.98c-20.24 1.96-46.61 10.71-68 12 1.77-30.75 54.43-39.18 68-12" fill="#492351" data-color="2"/>
        <path d="M6207.19 1195.98c71.47 100.55-54.31 222.17-152 144-30.02-102.47 50.21-178.87 152-144m-115.44 123.44c30.3 10.75 63.91 5.57 82.77-22.11 12.05-17.68 25.23-61.98-2.21-68.42-55.86-13.12-92.35 38.99-80.56 90.53" fill="#492351" data-color="2"/>
        <path d="M6207.19 1195.98c-101.79-34.87-182.02 41.53-152 144-101.44-81.17-1.92-232.29 120.15-174.15 19.89 9.48 21.01 14.89 31.85 30.15" fill="#733380" data-color="3"/>
        <path d="M7219.19 1007.98c21.91 9.19 22.36 61.5 20.01 82.01-5.5 48.1-51.3 83.03-97.86 86.11-21.9 1.45-58.83-2.75-70.16-24.12-15.55-29.36-9.64-77.85 8.67-105.33 29.48-44.26 90.98-58.95 139.33-38.67Zm-20.55 36.57c-35.19-14.46-82.63 1.58-92.71 40.17-10.23 39.16-3.52 56.4 38.92 50.89 46.45-6.03 60.75-49.65 53.79-91.06" fill="#492351" data-color="2"/>
        <path d="M7219.19 1007.98c-48.35-20.28-109.85-5.59-139.33 38.67-18.31 27.49-24.22 75.97-8.67 105.33-57.28-28.25-54.95-116.76-12.14-158.14 41.51-40.13 131.9-41.76 160.14 14.14" fill="#733380" data-color="3"/>
        <path fill="#ac4dbf" d="m5630.84 2112.3 23.8 247.14-147.42 16.53-20.05-252.01z" data-color="1"/>
        <path d="m4567.19 2171.98-.02 48.02c9 .98 52.02-3.82 52.02 5.98v146l-48.02-.02c-.98 9 3.82 52.02-5.98 52.02h-94l-4.2-238.2c-.87-4.1 2.89-13.8 6.2-13.8z" fill="#ac4dbf" data-color="1"/>
    </g>
</svg>
